<?xml version="1.0" encoding="UTF-8"?>
<!DOCTYPE svg PUBLIC "-//W3C//DTD SVG 1.1//EN" "http://www.w3.org/Graphics/SVG/1.1/DTD/svg11.dtd">
<svg xmlns="http://www.w3.org/2000/svg" version="1.1" width="500px" height="373px" style="shape-rendering:geometricPrecision; text-rendering:geometricPrecision; image-rendering:optimizeQuality; fill-rule:evenodd; clip-rule:evenodd" xmlns:xlink="http://www.w3.org/1999/xlink">
<g><path style="opacity:0.999" fill="#e2342f" d="M 288.5,219.5 C 286.143,219.337 283.81,219.503 281.5,220C 282.044,220.717 282.711,221.217 283.5,221.5C 332.132,263.311 380.132,305.811 427.5,349C 427.265,352.399 425.598,354.732 422.5,356C 366.994,364.691 311.328,367.691 255.5,365C 245.678,349.861 237.011,334.027 229.5,317.5C 229.715,315.821 229.048,314.821 227.5,314.5C 213.121,286.617 198.955,258.617 185,230.5C 182.513,228.191 180.513,225.524 179,222.5C 176.444,223.219 175.277,224.886 175.5,227.5C 176.057,232.165 177.39,236.498 179.5,240.5C 180.612,242.599 181.279,244.933 181.5,247.5C 181.723,251.162 182.723,254.495 184.5,257.5C 189.257,270.848 193.257,284.514 196.5,298.5C 197.39,304.166 199.057,309.5 201.5,314.5C 206.947,330.52 211.614,346.853 215.5,363.5C 203.465,362.986 191.465,362.32 179.5,361.5C 167.43,359.085 155.097,357.752 142.5,357.5C 136.752,357.393 131.085,356.726 125.5,355.5C 118.222,352.647 110.555,351.314 102.5,351.5C 97.5214,352.35 95.5214,350.517 96.5,346C 94.15,323.603 92.4834,301.103 91.5,278.5C 91.6752,267.962 91.0085,257.628 89.5,247.5C 86.9272,208.452 85.2605,169.452 84.5,130.5C 84.6666,114.163 84.4999,97.8299 84,81.5C 83.8238,77.3123 83.3238,73.3123 82.5,69.5C 82.5,61.5 82.5,53.5 82.5,45.5C 95.1208,42.9092 107.787,40.5758 120.5,38.5C 128.885,37.7905 137.218,36.6238 145.5,35C 146.056,34.6174 146.389,34.1174 146.5,33.5C 150.418,32.5584 154.418,31.8918 158.5,31.5C 168.504,30.4997 178.504,29.333 188.5,28C 189.416,27.7216 190.082,27.2216 190.5,26.5C 207.602,23.4485 224.935,21.1152 242.5,19.5C 250.836,19.111 259.169,18.611 267.5,18C 270.675,18.0533 273.342,17.22 275.5,15.5C 289.455,13.8981 303.455,12.8981 317.5,12.5C 325.374,12.5389 333.04,11.8722 340.5,10.5C 346.138,9.54086 351.805,9.3742 357.5,10C 384.237,61.461 403.07,115.628 414,172.5C 401.161,187.006 387.327,200.506 372.5,213C 365.355,215.244 358.189,216.077 351,215.5C 330.255,217.346 309.421,218.68 288.5,219.5 Z M 242.5,110.5 C 242.5,120.5 242.5,130.5 242.5,140.5C 239.941,140.198 237.607,140.532 235.5,141.5C 217.474,142.533 199.474,143.866 181.5,145.5C 181.116,140.99 180.449,136.657 179.5,132.5C 179.594,124.953 178.928,117.62 177.5,110.5C 177.281,109.325 177.614,108.325 178.5,107.5C 199.795,108.698 221.128,109.698 242.5,110.5 Z"/></g>
<g><path style="opacity:0.259" fill="#a02b25" d="M 340.5,10.5 C 333.04,11.8722 325.374,12.5389 317.5,12.5C 324.96,11.1278 332.626,10.4611 340.5,10.5 Z"/></g>
<g><path style="opacity:0.82" fill="#ab2622" d="M 275.5,15.5 C 273.342,17.22 270.675,18.0533 267.5,18C 259.169,18.611 250.836,19.111 242.5,19.5C 253.334,17.9352 264.334,16.6019 275.5,15.5 Z"/></g>
<g><path style="opacity:0.663" fill="#ac2622" d="M 190.5,26.5 C 190.082,27.2216 189.416,27.7216 188.5,28C 178.504,29.333 168.504,30.4997 158.5,31.5C 168.938,29.2061 179.604,27.5395 190.5,26.5 Z"/></g>
<g><path style="opacity:1" fill="#fefdfd" d="M 193.5,208.5 C 180.01,207.504 166.344,207.171 152.5,207.5C 152.263,208.791 152.596,209.791 153.5,210.5C 164.476,253.737 175.143,297.07 185.5,340.5C 178.372,339.435 171.372,338.435 164.5,337.5C 159.384,336.194 154.051,335.527 148.5,335.5C 147.833,335.5 147.167,335.5 146.5,335.5C 141.731,334.111 136.731,333.444 131.5,333.5C 126.797,333.563 122.13,333.229 117.5,332.5C 116.633,311.826 115.633,291.159 114.5,270.5C 114.268,261.983 113.601,253.65 112.5,245.5C 109.388,184.818 106.054,124.152 102.5,63.5C 149.901,54.552 197.568,47.552 245.5,42.5C 250.414,42.6382 255.081,41.9715 259.5,40.5C 260.5,40.5 261.5,40.5 262.5,40.5C 267.731,40.5557 272.731,39.889 277.5,38.5C 300.339,35.6787 323.172,34.0121 346,33.5C 364.705,72.9481 379.039,113.948 389,156.5C 389.998,160.473 390.331,164.473 390,168.5C 381.5,177.667 373,186.833 364.5,196C 322.433,198.406 280.433,201.572 238.5,205.5C 284.349,248.517 330.349,291.35 376.5,334C 377.333,336.081 377.333,338.248 376.5,340.5C 341.84,341.839 307.173,342.672 272.5,343C 246.266,298.021 219.933,253.188 193.5,208.5 Z M 242.5,110.5 C 242.5,120.5 242.5,130.5 242.5,140.5C 239.941,140.198 237.607,140.532 235.5,141.5C 217.474,142.533 199.474,143.866 181.5,145.5C 181.116,140.99 180.449,136.657 179.5,132.5C 179.594,124.953 178.928,117.62 177.5,110.5C 177.281,109.325 177.614,108.325 178.5,107.5C 199.795,108.698 221.128,109.698 242.5,110.5 Z"/></g>
<g><path style="opacity:0.663" fill="#eb6159" d="M 146.5,33.5 C 146.389,34.1174 146.056,34.6174 145.5,35C 137.218,36.6238 128.885,37.7905 120.5,38.5C 128.901,36.0873 137.568,34.4206 146.5,33.5 Z"/></g>
<g><path style="opacity:1" fill="#f9c4c2" d="M 277.5,38.5 C 272.731,39.889 267.731,40.5557 262.5,40.5C 267.269,39.111 272.269,38.4443 277.5,38.5 Z"/></g>
<g><path style="opacity:1" fill="#f9cbc9" d="M 259.5,40.5 C 255.081,41.9715 250.414,42.6382 245.5,42.5C 249.919,41.0285 254.586,40.3618 259.5,40.5 Z"/></g>
<g><path style="opacity:0.613" fill="#a2312b" d="M 82.5,69.5 C 83.3238,73.3123 83.8238,77.3123 84,81.5C 84.4999,97.8299 84.6666,114.163 84.5,130.5C 83.1096,110.349 82.4429,90.0155 82.5,69.5 Z"/></g>
<g><path style="opacity:0.998" fill="#e43630" d="M 156.5,89.5 C 192.157,90.8662 227.824,91.8662 263.5,92.5C 263.5,114.167 263.5,135.833 263.5,157.5C 229.54,160.662 195.54,163.328 161.5,165.5C 159.612,140.186 157.945,114.853 156.5,89.5 Z M 242.5,110.5 C 242.5,120.5 242.5,130.5 242.5,140.5C 239.941,140.198 237.607,140.532 235.5,141.5C 217.474,142.533 199.474,143.866 181.5,145.5C 181.116,140.99 180.449,136.657 179.5,132.5C 179.594,124.953 178.928,117.62 177.5,110.5C 177.281,109.325 177.614,108.325 178.5,107.5C 199.795,108.698 221.128,109.698 242.5,110.5 Z"/></g>
<g><path style="opacity:0.125" fill="#ed7672" d="M 242.5,110.5 C 243.494,120.653 243.828,130.986 243.5,141.5C 240.833,141.5 238.167,141.5 235.5,141.5C 237.607,140.532 239.941,140.198 242.5,140.5C 242.5,130.5 242.5,120.5 242.5,110.5 Z"/></g>
<g><path style="opacity:0.282" fill="#f17f78" d="M 177.5,110.5 C 178.928,117.62 179.594,124.953 179.5,132.5C 177.823,125.404 177.157,118.071 177.5,110.5 Z"/></g>
<g><path style="opacity:1" fill="#f0908e" d="M 193.5,208.5 C 179.791,207.852 166.458,208.519 153.5,210.5C 152.596,209.791 152.263,208.791 152.5,207.5C 166.344,207.171 180.01,207.504 193.5,208.5 Z"/></g>
<g><path style="opacity:0.031" fill="#f08b88" d="M 288.5,219.5 C 286.833,220.167 285.167,220.833 283.5,221.5C 282.711,221.217 282.044,220.717 281.5,220C 283.81,219.503 286.143,219.337 288.5,219.5 Z"/></g>
<g><path style="opacity:0.537" fill="#ef756f" d="M 175.5,227.5 C 177.61,231.502 178.943,235.835 179.5,240.5C 177.39,236.498 176.057,232.165 175.5,227.5 Z"/></g>
<g><path style="opacity:0.478" fill="#ef766f" d="M 181.5,247.5 C 183.277,250.505 184.277,253.838 184.5,257.5C 182.723,254.495 181.723,251.162 181.5,247.5 Z"/></g>
<g><path style="opacity:1" fill="#ec6860" d="M 112.5,245.5 C 113.601,253.65 114.268,261.983 114.5,270.5C 112.824,262.395 112.157,254.062 112.5,245.5 Z"/></g>
<g><path style="opacity:0.302" fill="#9d362f" d="M 89.5,247.5 C 91.0085,257.628 91.6752,267.962 91.5,278.5C 90.2199,268.357 89.5533,258.024 89.5,247.5 Z"/></g>
<g><path style="opacity:0.584" fill="#ed6b64" d="M 196.5,298.5 C 198.943,303.5 200.61,308.834 201.5,314.5C 199.057,309.5 197.39,304.166 196.5,298.5 Z"/></g>
<g><path style="opacity:0.322" fill="#f4928b" d="M 227.5,314.5 C 229.048,314.821 229.715,315.821 229.5,317.5C 228.599,316.71 227.932,315.71 227.5,314.5 Z"/></g>
<g><path style="opacity:1" fill="#f8c0bd" d="M 131.5,333.5 C 136.731,333.444 141.731,334.111 146.5,335.5C 141.269,335.556 136.269,334.889 131.5,333.5 Z"/></g>
<g><path style="opacity:1" fill="#f9c2bf" d="M 148.5,335.5 C 154.051,335.527 159.384,336.194 164.5,337.5C 158.931,337.624 153.598,336.957 148.5,335.5 Z"/></g>
<g><path style="opacity:0.859" fill="#ab2621" d="M 102.5,351.5 C 110.555,351.314 118.222,352.647 125.5,355.5C 117.581,354.891 109.914,353.558 102.5,351.5 Z"/></g>
<g><path style="opacity:0.796" fill="#aa2622" d="M 142.5,357.5 C 155.097,357.752 167.43,359.085 179.5,361.5C 166.909,361.237 154.576,359.903 142.5,357.5 Z"/></g>
</svg>
