<svg xmlns="http://www.w3.org/2000/svg" width="22" height="20" viewBox="0 0 22 20" fill="none" class="i" id="friends">
    <path d="M8.084 13.175c-4.36 0-8.084.68-8.084 3.4C0 19.296 3.7 20 8.084 20c4.36 0 8.085-.68 8.085-3.4 0-2.721-3.7-3.425-8.085-3.425Zm13.673.346c-.382-.806-1.305-1.358-2.708-1.63-.662-.16-2.455-.386-4.122-.354-.025.003-.04.02-.041.03-.003.018.004.043.036.062.771.376 3.75 2.016 3.375 5.474a.229.229 0 0 0 .257.258c.733-.104 2.619-.505 3.203-1.753a2.362 2.362 0 0 0 0-2.087ZM8.084 10.583c2.97 0 5.35-2.354 5.35-5.291 0-2.938-2.38-5.292-5.35-5.292-2.968 0-5.35 2.354-5.35 5.292 0 2.937 2.382 5.291 5.35 5.291Zm7.506-5.195a7.125 7.125 0 0 1-1.25 4.05c-.083.12-.01.28.135.306.2.033.405.053.615.058 2.088.054 3.962-1.276 4.48-3.278.767-2.972-1.484-5.64-4.353-5.64-.31 0-.609.032-.9.09-.04.009-.082.028-.104.062-.028.044-.007.1.02.137a7.174 7.174 0 0 1 1.358 4.215Z" fill="#fff"/>
  </svg>