<?xml version="1.0" encoding="UTF-8"?>
<!DOCTYPE svg PUBLIC "-//W3C//DTD SVG 1.1//EN" "http://www.w3.org/Graphics/SVG/1.1/DTD/svg11.dtd">
<svg xmlns="http://www.w3.org/2000/svg" version="1.1" width="320px" height="60px" style="shape-rendering:geometricPrecision; text-rendering:geometricPrecision; image-rendering:optimizeQuality; fill-rule:evenodd; clip-rule:evenodd" xmlns:xlink="http://www.w3.org/1999/xlink">
<g><path style="opacity:1" fill="#fdf5f4" d="M 35.5,14.5 C 40.8746,14.1718 46.2079,14.5052 51.5,15.5C 53.5798,17.5732 55.2464,19.9066 56.5,22.5C 56.427,24.0269 57.0937,25.0269 58.5,25.5C 58.4729,27.1993 57.8062,28.5326 56.5,29.5C 50.8936,30.4069 45.227,30.7402 39.5,30.5C 36.4281,30.1826 33.4281,30.5159 30.5,31.5C 30.6236,32.1067 30.9569,32.44 31.5,32.5C 39.8072,36.3192 48.1405,40.1525 56.5,44C 49.5,44.6667 42.5,44.6667 35.5,44C 30.8333,40 26.1667,36 21.5,32C 19.1902,31.5034 16.8568,31.3367 14.5,31.5C 15.5509,35.2687 16.8843,38.9354 18.5,42.5C 15.0381,43.4816 11.3714,43.815 7.5,43.5C 5.63693,35.0714 4.63693,26.4048 4.5,17.5C 14.9927,16.6553 25.326,15.6553 35.5,14.5 Z M 18.5,22.5 C 22.5546,22.1758 26.5546,22.5091 30.5,23.5C 28.5,23.8333 26.5,24.1667 24.5,24.5C 22.0478,24.4609 20.0478,23.7943 18.5,22.5 Z"/></g>
<g><path style="opacity:1" fill="#fdf6f5" d="M 251.5,42.5 C 247.317,41.7433 243.317,40.41 239.5,38.5C 243.666,35.5825 247.999,32.9159 252.5,30.5C 247.39,28.3547 242.39,26.0214 237.5,23.5C 246.359,19.2175 255.025,19.5508 263.5,24.5C 265.073,24.2483 266.406,23.5817 267.5,22.5C 272.479,20.3456 277.479,18.1789 282.5,16C 288.973,15.2806 295.306,15.9473 301.5,18C 293.231,21.1356 285.231,24.8023 277.5,29C 280.681,30.6328 284.014,31.9661 287.5,33C 295.175,34.6705 302.842,36.3372 310.5,38C 305.224,40.7582 299.724,42.9249 294,44.5C 284.741,42.1061 275.741,39.1061 267,35.5C 263.569,37.261 260.403,39.4276 257.5,42C 255.527,42.4955 253.527,42.6621 251.5,42.5 Z"/></g>
<g><path style="opacity:1" fill="#fcf4f3" d="M 157.5,18.5 C 163.526,20.212 163.859,22.712 158.5,26C 157.099,26.4101 155.766,26.9101 154.5,27.5C 152.571,27.2308 150.905,27.7308 149.5,29C 150.094,29.4643 150.761,29.631 151.5,29.5C 155.906,30.6914 160.24,32.1914 164.5,34C 163.695,35.1127 163.028,36.2794 162.5,37.5C 160.704,38.7927 159.037,40.2927 157.5,42C 143.171,42.4999 128.837,42.6666 114.5,42.5C 114.44,39.979 115.106,37.6457 116.5,35.5C 114.215,29.3028 113.882,22.9694 115.5,16.5C 126.824,15.6525 138.158,15.4859 149.5,16C 152.154,16.9406 154.821,17.7739 157.5,18.5 Z M 131.5,22.5 C 135.182,22.3347 138.848,22.5014 142.5,23C 140.256,23.9057 137.923,24.4057 135.5,24.5C 133.667,24.4146 132.334,23.7479 131.5,22.5 Z M 133.5,32.5 C 135.167,32.5 136.833,32.5 138.5,32.5C 138.67,33.8221 138.337,34.9887 137.5,36C 135.527,36.4955 133.527,36.6621 131.5,36.5C 131.527,34.8007 132.194,33.4674 133.5,32.5 Z"/></g>
<g><path style="opacity:0.906" fill="#d8372c" d="M 160.5,9.5 C 160.5,12.1667 160.5,14.8333 160.5,17.5C 159.209,17.2627 158.209,17.596 157.5,18.5C 154.821,17.7739 152.154,16.9406 149.5,16C 138.158,15.4859 126.824,15.6525 115.5,16.5C 115.44,15.9569 115.107,15.6236 114.5,15.5C 113.382,19.5677 111.715,23.2344 109.5,26.5C 109.167,26.5 108.833,26.5 108.5,26.5C 107.457,23.9438 105.79,21.7772 103.5,20C 90.8333,19.3333 78.1667,19.3333 65.5,20C 64.9558,20.7172 64.2891,21.2172 63.5,21.5C 63.6309,20.6236 63.2975,19.9569 62.5,19.5C 58.2175,20.7252 55.5508,19.0585 54.5,14.5C 56.4788,15.8121 58.1455,17.4788 59.5,19.5C 60.5,19 61.5,18.5 62.5,18C 70.1667,17.6667 77.8333,17.3333 85.5,17C 78.8085,16.8309 72.1419,16.3309 65.5,15.5C 64.1152,14.4495 63.1152,13.1161 62.5,11.5C 63.1667,11.1667 63.8333,10.8333 64.5,10.5C 77.803,9.53591 91.1363,9.20257 104.5,9.5C 104.771,11.8211 104.104,13.8211 102.5,15.5C 104.336,16.919 106.336,18.0857 108.5,19C 109.126,19.7504 109.626,20.5838 110,21.5C 110.497,19.1902 110.663,16.8568 110.5,14.5C 123.78,12.8813 137.114,12.3813 150.5,13C 152.871,13.7348 155.205,14.5682 157.5,15.5C 157.964,13.0251 158.964,11.0251 160.5,9.5 Z"/></g>
<g><path style="opacity:1" fill="#f9e1df" d="M 67.5,11.5 C 78.1874,11.168 88.8541,11.5013 99.5,12.5C 99.2907,13.086 98.9574,13.586 98.5,14C 88.5,14.6667 78.5,14.6667 68.5,14C 67.7476,13.3292 67.4142,12.4959 67.5,11.5 Z"/></g>
<g><path style="opacity:1" fill="#dc5b54" d="M 133.5,20.5 C 131.833,20.5 130.167,20.5 128.5,20.5C 128.784,22.4147 128.451,24.0813 127.5,25.5C 127.5,24.8333 127.5,24.1667 127.5,23.5C 127.5,22.1667 127.5,20.8333 127.5,19.5C 129.735,19.2053 131.735,19.5386 133.5,20.5 Z"/></g>
<g><path style="opacity:0.031" fill="#d3463c" d="M 25.5,20.5 C 28.8333,20.5 32.1667,20.5 35.5,20.5C 35.7947,22.7354 35.4614,24.7354 34.5,26.5C 34.5,24.8333 34.5,23.1667 34.5,21.5C 33.5,21.5 32.5,21.5 31.5,21.5C 31.5,22.8333 31.5,24.1667 31.5,25.5C 26.8333,25.5 22.1667,25.5 17.5,25.5C 17.5,24.1667 17.5,22.8333 17.5,21.5C 20.3854,21.8064 23.0521,21.4731 25.5,20.5 Z M 18.5,22.5 C 20.0478,23.7943 22.0478,24.4609 24.5,24.5C 26.5,24.1667 28.5,23.8333 30.5,23.5C 26.5546,22.5091 22.5546,22.1758 18.5,22.5 Z"/></g>
<g><path style="opacity:1" fill="#e88f8a" d="M 56.5,22.5 C 57.9063,22.9731 58.573,23.9731 58.5,25.5C 57.0937,25.0269 56.427,24.0269 56.5,22.5 Z"/></g>
<g><path style="opacity:1" fill="#eaa7a7" d="M 127.5,23.5 C 127.5,24.1667 127.5,24.8333 127.5,25.5C 128.919,26.4511 130.585,26.7845 132.5,26.5C 130.735,27.4614 128.735,27.7947 126.5,27.5C 126.232,25.901 126.566,24.5676 127.5,23.5 Z"/></g>
<g><path style="opacity:0.659" fill="#d74135" d="M 242.5,19.5 C 240.201,18.2222 237.868,16.8889 235.5,15.5C 234.537,15.9698 234.537,16.6365 235.5,17.5C 222.212,16.3701 208.878,16.2034 195.5,17C 194.627,18.045 193.627,18.8783 192.5,19.5C 192.128,17.3441 191.128,17.3441 189.5,19.5C 188.23,23.4842 188.23,27.4842 189.5,31.5C 190.167,28.0227 190.834,24.6893 191.5,21.5C 191.292,26.6362 191.959,31.6362 193.5,36.5C 192.034,35.653 191.2,34.3197 191,32.5C 190.878,34.437 190.045,35.7703 188.5,36.5C 187.1,31.6376 186.434,26.6376 186.5,21.5C 188.436,18.3401 191.103,15.8401 194.5,14C 208.167,13.3333 221.833,13.3333 235.5,14C 238.64,14.9911 240.974,16.8244 242.5,19.5 Z"/></g>
<g><path style="opacity:0.749" fill="#d81c13" d="M 15.5,20.5 C 18.8333,20.5 22.1667,20.5 25.5,20.5C 23.0521,21.4731 20.3854,21.8064 17.5,21.5C 17.5,22.8333 17.5,24.1667 17.5,25.5C 22.1667,25.5 26.8333,25.5 31.5,25.5C 31.5,24.1667 31.5,22.8333 31.5,21.5C 32.5,21.5 33.5,21.5 34.5,21.5C 34.5,23.1667 34.5,24.8333 34.5,26.5C 28.1667,26.5 21.8333,26.5 15.5,26.5C 15.5,24.5 15.5,22.5 15.5,20.5 Z M 18.5,22.5 C 20.0478,23.7943 22.0478,24.4609 24.5,24.5C 26.5,24.1667 28.5,23.8333 30.5,23.5C 26.5546,22.5091 22.5546,22.1758 18.5,22.5 Z"/></g>
<g><path style="opacity:1" fill="#d6392e" d="M 133.5,20.5 C 137.833,20.5 142.167,20.5 146.5,20.5C 146.579,21.9305 146.246,23.2638 145.5,24.5C 141.204,25.4585 136.871,26.1252 132.5,26.5C 130.585,26.7845 128.919,26.4511 127.5,25.5C 128.451,24.0813 128.784,22.4147 128.5,20.5C 130.167,20.5 131.833,20.5 133.5,20.5 Z M 131.5,22.5 C 132.334,23.7479 133.667,24.4146 135.5,24.5C 137.923,24.4057 140.256,23.9057 142.5,23C 138.848,22.5014 135.182,22.3347 131.5,22.5 Z"/></g>
<g><path style="opacity:1" fill="#d5463b" d="M 185.5,10.5 C 186.649,10.7911 187.316,11.6244 187.5,13C 186.784,15.7923 186.451,18.6257 186.5,21.5C 184.937,26.2643 183.937,31.2643 183.5,36.5C 182.681,33.6946 182.181,30.6946 182,27.5C 181.79,29.0581 181.29,30.3915 180.5,31.5C 180.388,25.2737 181.054,19.2737 182.5,13.5C 182.334,17.8461 182.501,22.1794 183,26.5C 184.439,21.2639 185.272,15.9306 185.5,10.5 Z"/></g>
<g><path style="opacity:1" fill="#de5e56" d="M 15.5,20.5 C 15.5,22.5 15.5,24.5 15.5,26.5C 21.8333,26.5 28.1667,26.5 34.5,26.5C 28.021,27.4907 21.3543,27.824 14.5,27.5C 14.1984,24.9407 14.5318,22.6074 15.5,20.5 Z"/></g>
<g><path style="opacity:1" fill="#e08285" d="M 154.5,27.5 C 153.5,28.1667 152.5,28.8333 151.5,29.5C 150.761,29.631 150.094,29.4643 149.5,29C 150.905,27.7308 152.571,27.2308 154.5,27.5 Z"/></g>
<g><path style="opacity:1" fill="#d9362b" d="M 319.5,36.5 C 319.5,37.1667 319.5,37.8333 319.5,38.5C 311.481,42.3415 303.148,45.3415 294.5,47.5C 285.651,44.9397 276.818,42.2731 268,39.5C 263.838,40.9845 260.171,43.3178 257,46.5C 253.39,45.5522 249.89,44.5522 246.5,43.5C 248.415,43.7845 250.081,43.4511 251.5,42.5C 253.527,42.6621 255.527,42.4955 257.5,42C 260.403,39.4276 263.569,37.261 267,35.5C 275.741,39.1061 284.741,42.1061 294,44.5C 299.724,42.9249 305.224,40.7582 310.5,38C 302.842,36.3372 295.175,34.6705 287.5,33C 284.014,31.9661 280.681,30.6328 277.5,29C 285.231,24.8023 293.231,21.1356 301.5,18C 295.306,15.9473 288.973,15.2806 282.5,16C 277.479,18.1789 272.479,20.3456 267.5,22.5C 265.724,22.2062 263.724,22.0395 261.5,22C 260.944,21.6174 260.611,21.1174 260.5,20.5C 261.583,20.5394 262.583,20.8728 263.5,21.5C 270.626,17.935 277.96,14.935 285.5,12.5C 294.304,13.5226 302.971,15.1892 311.5,17.5C 302.307,20.8434 293.307,24.6767 284.5,29C 296.082,31.9496 307.749,34.4496 319.5,36.5 Z"/></g>
<g><path style="opacity:1" fill="#d4362e" d="M 130.5,30.5 C 134.833,30.5 139.167,30.5 143.5,30.5C 143.244,32.9372 142.577,35.2706 141.5,37.5C 136.88,38.4933 132.214,38.8266 127.5,38.5C 127.5,36.1667 127.5,33.8333 127.5,31.5C 128.791,31.7373 129.791,31.404 130.5,30.5 Z M 133.5,32.5 C 132.194,33.4674 131.527,34.8007 131.5,36.5C 133.527,36.6621 135.527,36.4955 137.5,36C 138.337,34.9887 138.67,33.8221 138.5,32.5C 136.833,32.5 135.167,32.5 133.5,32.5 Z"/></g>
<g><path style="opacity:0.824" fill="#da3227" d="M 160.5,9.5 C 169.017,9.17395 177.35,9.50728 185.5,10.5C 185.272,15.9306 184.439,21.2639 183,26.5C 182.501,22.1794 182.334,17.8461 182.5,13.5C 178.627,11.5698 174.294,10.9031 169.5,11.5C 167.735,10.5386 165.735,10.2053 163.5,10.5C 163.19,13.7131 163.523,16.7131 164.5,19.5C 165.478,19.811 166.145,20.4777 166.5,21.5C 164.83,26.1322 165.497,30.2988 168.5,34C 166.177,36.9198 165.844,40.0864 167.5,43.5C 177.448,42.1716 187.448,41.5049 197.5,41.5C 197.5,40.5 197.5,39.5 197.5,38.5C 192.025,37.5111 186.358,37.1778 180.5,37.5C 180.5,36.1667 180.5,34.8333 180.5,33.5C 180.5,32.8333 180.5,32.1667 180.5,31.5C 181.29,30.3915 181.79,29.0581 182,27.5C 182.181,30.6946 182.681,33.6946 183.5,36.5C 185.167,36.5 186.833,36.5 188.5,36.5C 190.045,35.7703 190.878,34.437 191,32.5C 191.2,34.3197 192.034,35.653 193.5,36.5C 196.167,36.5 198.833,36.5 201.5,36.5C 201.5,37.8333 201.5,39.1667 201.5,40.5C 200.957,40.56 200.624,40.8933 200.5,41.5C 211.66,42.8238 222.66,42.8238 233.5,41.5C 234.774,40.8106 234.774,39.9772 233.5,39C 237.797,36.0545 239.797,31.8879 239.5,26.5C 236.484,26.1594 233.818,24.9927 231.5,23C 233.376,21.9827 235.376,21.1494 237.5,20.5C 236.807,19.4822 236.141,18.4822 235.5,17.5C 234.537,16.6365 234.537,15.9698 235.5,15.5C 237.868,16.8889 240.201,18.2222 242.5,19.5C 245.945,18.6445 249.445,17.9778 253,17.5C 255.956,17.568 258.456,18.568 260.5,20.5C 260.611,21.1174 260.944,21.6174 261.5,22C 263.724,22.0395 265.724,22.2062 267.5,22.5C 266.406,23.5817 265.073,24.2483 263.5,24.5C 255.025,19.5508 246.359,19.2175 237.5,23.5C 242.39,26.0214 247.39,28.3547 252.5,30.5C 247.999,32.9159 243.666,35.5825 239.5,38.5C 243.317,40.41 247.317,41.7433 251.5,42.5C 250.081,43.4511 248.415,43.7845 246.5,43.5C 228.951,44.6975 211.284,44.6975 193.5,43.5C 184.652,44.4177 175.819,45.4177 167,46.5C 164.977,45.2932 163.144,43.9598 161.5,42.5C 162.568,41.5655 163.901,41.2322 165.5,41.5C 165.662,39.4727 165.495,37.4727 165,35.5C 164.583,36.756 163.75,37.4226 162.5,37.5C 163.028,36.2794 163.695,35.1127 164.5,34C 160.24,32.1914 155.906,30.6914 151.5,29.5C 152.5,28.8333 153.5,28.1667 154.5,27.5C 155.766,26.9101 157.099,26.4101 158.5,26C 163.859,22.712 163.526,20.212 157.5,18.5C 158.209,17.596 159.209,17.2627 160.5,17.5C 160.5,14.8333 160.5,12.1667 160.5,9.5 Z M 186.5,21.5 C 186.434,26.6376 187.1,31.6376 188.5,36.5C 186.833,36.5 185.167,36.5 183.5,36.5C 183.937,31.2643 184.937,26.2643 186.5,21.5 Z M 208.5,23.5 C 212.167,23.5 215.833,23.5 219.5,23.5C 220.9,24.0998 221.9,25.0998 222.5,26.5C 222.5,27.1667 222.5,27.8333 222.5,28.5C 221.539,30.2646 221.205,32.2646 221.5,34.5C 217.167,34.5 212.833,34.5 208.5,34.5C 208.5,30.8333 208.5,27.1667 208.5,23.5 Z"/></g>
<g><path style="opacity:1" fill="#f1bebc" d="M 201.5,40.5 C 211.987,41.4944 222.654,41.8278 233.5,41.5C 222.66,42.8238 211.66,42.8238 200.5,41.5C 200.624,40.8933 200.957,40.56 201.5,40.5 Z"/></g>
<g><path style="opacity:1" fill="#e87770" d="M 180.5,33.5 C 180.5,34.8333 180.5,36.1667 180.5,37.5C 186.358,37.1778 192.025,37.5111 197.5,38.5C 191.5,38.5 185.5,38.5 179.5,38.5C 179.216,36.5853 179.549,34.9187 180.5,33.5 Z"/></g>
<g><path style="opacity:1" fill="#e87b73" d="M 242.5,29.5 C 243.978,29.238 245.311,29.5713 246.5,30.5C 245.68,32.1112 244.346,32.7778 242.5,32.5C 242.5,31.5 242.5,30.5 242.5,29.5 Z"/></g>
<g><path style="opacity:1" fill="#dc1b11" d="M 192.5,19.5 C 192.167,20.1667 191.833,20.8333 191.5,21.5C 190.834,24.6893 190.167,28.0227 189.5,31.5C 188.23,27.4842 188.23,23.4842 189.5,19.5C 191.128,17.3441 192.128,17.3441 192.5,19.5 Z"/></g>
<g><path style="opacity:1" fill="#fdf5f3" d="M 235.5,17.5 C 236.141,18.4822 236.807,19.4822 237.5,20.5C 235.376,21.1494 233.376,21.9827 231.5,23C 233.818,24.9927 236.484,26.1594 239.5,26.5C 239.797,31.8879 237.797,36.0545 233.5,39C 234.774,39.9772 234.774,40.8106 233.5,41.5C 222.654,41.8278 211.987,41.4944 201.5,40.5C 201.5,39.1667 201.5,37.8333 201.5,36.5C 198.833,36.5 196.167,36.5 193.5,36.5C 191.959,31.6362 191.292,26.6362 191.5,21.5C 191.833,20.8333 192.167,20.1667 192.5,19.5C 193.627,18.8783 194.627,18.045 195.5,17C 208.878,16.2034 222.212,16.3701 235.5,17.5 Z M 208.5,23.5 C 212.167,23.5 215.833,23.5 219.5,23.5C 220.9,24.0998 221.9,25.0998 222.5,26.5C 222.5,27.1667 222.5,27.8333 222.5,28.5C 221.539,30.2646 221.205,32.2646 221.5,34.5C 217.167,34.5 212.833,34.5 208.5,34.5C 208.5,30.8333 208.5,27.1667 208.5,23.5 Z"/></g>
<g><path style="opacity:1" fill="#d9241a" d="M 218.5,21.5 C 218.833,22.1667 219.167,22.8333 219.5,23.5C 215.833,23.5 212.167,23.5 208.5,23.5C 207.275,24.1522 206.608,25.3189 206.5,27C 207.031,29.8166 207.364,32.65 207.5,35.5C 212.363,35.8195 217.03,35.4861 221.5,34.5C 223.151,32.5979 223.484,30.5979 222.5,28.5C 222.5,27.8333 222.5,27.1667 222.5,26.5C 223.791,25.4583 223.791,24.2917 222.5,23C 223.448,22.5172 224.448,22.3505 225.5,22.5C 225.5,26.5 225.5,30.5 225.5,34.5C 218.913,36.4612 211.913,37.1279 204.5,36.5C 203.836,31.5275 203.503,26.5275 203.5,21.5C 208.5,21.5 213.5,21.5 218.5,21.5 Z M 208.5,23.5 C 212.167,23.5 215.833,23.5 219.5,23.5C 220.9,24.0998 221.9,25.0998 222.5,26.5C 222.5,27.1667 222.5,27.8333 222.5,28.5C 221.539,30.2646 221.205,32.2646 221.5,34.5C 217.167,34.5 212.833,34.5 208.5,34.5C 208.5,30.8333 208.5,27.1667 208.5,23.5 Z"/></g>
<g><path style="opacity:0.263" fill="#cc524c" d="M 222.5,28.5 C 223.484,30.5979 223.151,32.5979 221.5,34.5C 221.205,32.2646 221.539,30.2646 222.5,28.5 Z"/></g>
<g><path style="opacity:0.153" fill="#d24a40" d="M 208.5,23.5 C 208.5,27.1667 208.5,30.8333 208.5,34.5C 212.833,34.5 217.167,34.5 221.5,34.5C 217.03,35.4861 212.363,35.8195 207.5,35.5C 207.364,32.65 207.031,29.8166 206.5,27C 206.608,25.3189 207.275,24.1522 208.5,23.5 Z"/></g>
<g><path style="opacity:1" fill="#da4e45" d="M 218.5,21.5 C 221.167,21.5 223.833,21.5 226.5,21.5C 226.818,26.0323 226.485,30.3656 225.5,34.5C 225.5,30.5 225.5,26.5 225.5,22.5C 224.448,22.3505 223.448,22.5172 222.5,23C 223.791,24.2917 223.791,25.4583 222.5,26.5C 221.9,25.0998 220.9,24.0998 219.5,23.5C 219.167,22.8333 218.833,22.1667 218.5,21.5 Z"/></g>
<g><path style="opacity:1" fill="#df7d77" d="M 169.5,11.5 C 167.833,11.5 166.167,11.5 164.5,11.5C 164.5,14.1667 164.5,16.8333 164.5,19.5C 163.523,16.7131 163.19,13.7131 163.5,10.5C 165.735,10.2053 167.735,10.5386 169.5,11.5 Z"/></g>
<g><path style="opacity:1" fill="#fdf8f7" d="M 169.5,11.5 C 174.294,10.9031 178.627,11.5698 182.5,13.5C 181.054,19.2737 180.388,25.2737 180.5,31.5C 180.5,32.1667 180.5,32.8333 180.5,33.5C 179.549,34.9187 179.216,36.5853 179.5,38.5C 185.5,38.5 191.5,38.5 197.5,38.5C 197.5,39.5 197.5,40.5 197.5,41.5C 187.448,41.5049 177.448,42.1716 167.5,43.5C 165.844,40.0864 166.177,36.9198 168.5,34C 165.497,30.2988 164.83,26.1322 166.5,21.5C 166.145,20.4777 165.478,19.811 164.5,19.5C 164.5,16.8333 164.5,14.1667 164.5,11.5C 166.167,11.5 167.833,11.5 169.5,11.5 Z"/></g>
<g><path style="opacity:0.699" fill="#d82b21" d="M 54.5,14.5 C 55.5508,19.0585 58.2175,20.7252 62.5,19.5C 63.2975,19.9569 63.6309,20.6236 63.5,21.5C 62.181,23.4684 62.181,25.4684 63.5,27.5C 61.9991,28.7515 60.3325,29.7515 58.5,30.5C 57.5444,31.8651 56.8777,33.3651 56.5,35C 60.3587,38.0979 64.692,40.4312 69.5,42C 80.5,42.6667 91.5,42.6667 102.5,42C 106.213,40.1489 109.547,37.8156 112.5,35C 111.923,33.0999 111.256,31.2666 110.5,29.5C 110.443,28.391 110.11,27.391 109.5,26.5C 111.715,23.2344 113.382,19.5677 114.5,15.5C 115.107,15.6236 115.44,15.9569 115.5,16.5C 113.882,22.9694 114.215,29.3028 116.5,35.5C 115.106,37.6457 114.44,39.979 114.5,42.5C 128.837,42.6666 143.171,42.4999 157.5,42C 159.037,40.2927 160.704,38.7927 162.5,37.5C 163.75,37.4226 164.583,36.756 165,35.5C 165.495,37.4727 165.662,39.4727 165.5,41.5C 163.901,41.2322 162.568,41.5655 161.5,42.5C 161.389,43.1174 161.056,43.6174 160.5,44C 152.835,44.5221 145.168,45.0221 137.5,45.5C 127.638,45.3957 117.972,44.3957 108.5,42.5C 107.5,43 106.5,43.5 105.5,44C 92.8333,44.6667 80.1667,44.6667 67.5,44C 62.6226,42.0582 57.9559,39.8915 53.5,37.5C 53.722,34.4958 54.722,31.8292 56.5,29.5C 57.8062,28.5326 58.4729,27.1993 58.5,25.5C 58.573,23.9731 57.9063,22.9731 56.5,22.5C 55.2464,19.9066 53.5798,17.5732 51.5,15.5C 46.2079,14.5052 40.8746,14.1718 35.5,14.5C 39.8219,13.165 46.1552,13.165 54.5,14.5 Z M 84.5,26.5 C 86.1667,26.5 87.8333,26.5 89.5,26.5C 89.0423,29.3938 89.709,31.8938 91.5,34C 86.1771,34.4994 80.8437,34.666 75.5,34.5C 75.6741,32.139 76.0074,29.8056 76.5,27.5C 79.3854,27.8064 82.0521,27.4731 84.5,26.5 Z"/></g>
<g><path style="opacity:1" fill="#e58280" d="M 108.5,26.5 C 108.833,26.5 109.167,26.5 109.5,26.5C 110.11,27.391 110.443,28.391 110.5,29.5C 109.094,29.0269 108.427,28.0269 108.5,26.5 Z"/></g>
<g><path style="opacity:1" fill="#fcf0ef" d="M 108.5,26.5 C 108.427,28.0269 109.094,29.0269 110.5,29.5C 111.256,31.2666 111.923,33.0999 112.5,35C 109.547,37.8156 106.213,40.1489 102.5,42C 91.5,42.6667 80.5,42.6667 69.5,42C 64.692,40.4312 60.3587,38.0979 56.5,35C 56.8777,33.3651 57.5444,31.8651 58.5,30.5C 60.3325,29.7515 61.9991,28.7515 63.5,27.5C 62.181,25.4684 62.181,23.4684 63.5,21.5C 64.2891,21.2172 64.9558,20.7172 65.5,20C 78.1667,19.3333 90.8333,19.3333 103.5,20C 105.79,21.7772 107.457,23.9438 108.5,26.5 Z M 84.5,26.5 C 82.0521,27.4731 79.3854,27.8064 76.5,27.5C 76.0074,29.8056 75.6741,32.139 75.5,34.5C 80.8437,34.666 86.1771,34.4994 91.5,34C 89.709,31.8938 89.0423,29.3938 89.5,26.5C 87.8333,26.5 86.1667,26.5 84.5,26.5 Z"/></g>
<g><path style="opacity:0.649" fill="#d63428" d="M 73.5,24.5 C 80.175,24.3337 86.8417,24.5004 93.5,25C 95.0462,28.6504 95.7129,32.4838 95.5,36.5C 87.1667,36.5 78.8333,36.5 70.5,36.5C 71.0966,32.3811 72.0966,28.3811 73.5,24.5 Z M 84.5,26.5 C 82.0521,27.4731 79.3854,27.8064 76.5,27.5C 76.0074,29.8056 75.6741,32.139 75.5,34.5C 80.8437,34.666 86.1771,34.4994 91.5,34C 89.709,31.8938 89.0423,29.3938 89.5,26.5C 87.8333,26.5 86.1667,26.5 84.5,26.5 Z"/></g>
<g><path style="opacity:1" fill="#d7352b" d="M 54.5,14.5 C 46.1552,13.165 39.8219,13.165 35.5,14.5C 25.326,15.6553 14.9927,16.6553 4.5,17.5C 4.63693,26.4048 5.63693,35.0714 7.5,43.5C 11.3507,44.8095 15.3507,44.8095 19.5,43.5C 19.3764,42.8933 19.0431,42.56 18.5,42.5C 16.8843,38.9354 15.5509,35.2687 14.5,31.5C 16.8568,31.3367 19.1902,31.5034 21.5,32C 26.1667,36 30.8333,40 35.5,44C 42.5,44.6667 49.5,44.6667 56.5,44C 48.1405,40.1525 39.8072,36.3192 31.5,32.5C 34.1667,31.8333 36.8333,31.1667 39.5,30.5C 45.227,30.7402 50.8936,30.4069 56.5,29.5C 54.722,31.8292 53.722,34.4958 53.5,37.5C 52.5,37.5 51.5,37.5 50.5,37.5C 55.7503,40.1252 61.0837,42.7918 66.5,45.5C 55.564,47.3304 44.564,47.8304 33.5,47C 28.3656,42.8671 23.5323,38.3671 19,33.5C 18.6848,34.9078 19.0181,36.2411 20,37.5C 22.0569,40.4619 24.2235,43.2953 26.5,46C 26,46.5 25.5,47 25,47.5C 17.9133,46.6851 10.7466,46.1851 3.5,46C 2.34183,44.9914 1.67516,43.6581 1.5,42C 1.02014,36.6617 0.353475,31.495 -0.5,26.5C -0.5,22.8333 -0.5,19.1667 -0.5,15.5C 17.4422,13.385 35.4422,12.5517 53.5,13C 54.056,13.3826 54.3893,13.8826 54.5,14.5 Z M 50.5,37.5 C 46.8023,36.818 43.469,35.318 40.5,33C 44.5411,32.1735 48.5411,32.3401 52.5,33.5C 51.1468,34.5237 50.4802,35.857 50.5,37.5 Z"/></g>
<g><path style="opacity:1" fill="#efa8a3" d="M 18.5,42.5 C 19.0431,42.56 19.3764,42.8933 19.5,43.5C 15.3507,44.8095 11.3507,44.8095 7.5,43.5C 11.3714,43.815 15.0381,43.4816 18.5,42.5 Z"/></g>
<g><path style="opacity:1" fill="#ea9e9c" d="M 39.5,30.5 C 36.8333,31.1667 34.1667,31.8333 31.5,32.5C 30.9569,32.44 30.6236,32.1067 30.5,31.5C 33.4281,30.5159 36.4281,30.1826 39.5,30.5 Z"/></g>
</svg>
