<?xml version="1.0" encoding="UTF-8"?>
<!DOCTYPE svg PUBLIC "-//W3C//DTD SVG 1.1//EN" "http://www.w3.org/Graphics/SVG/1.1/DTD/svg11.dtd">
<svg xmlns="http://www.w3.org/2000/svg" version="1.1" width="300px" height="52px" style="shape-rendering:geometricPrecision; text-rendering:geometricPrecision; image-rendering:optimizeQuality; fill-rule:evenodd; clip-rule:evenodd" xmlns:xlink="http://www.w3.org/1999/xlink">
<g><path style="opacity:0.012" fill="#e32318" d="M 56.5,-0.5 C 56.8333,-0.5 57.1667,-0.5 57.5,-0.5C 57.3147,0.170143 56.9813,0.170143 56.5,-0.5 Z"/></g>
<g><path style="opacity:0.957" fill="#e32318" d="M 58.5,-0.5 C 59.8333,-0.5 61.1667,-0.5 62.5,-0.5C 63.5676,0.434475 64.901,0.767809 66.5,0.5C 67.5676,1.43448 68.901,1.76781 70.5,1.5C 71.5676,2.43448 72.901,2.76781 74.5,2.5C 75.5676,3.43448 76.901,3.76781 78.5,3.5C 81.8878,5.11837 85.5544,6.11837 89.5,6.5C 90.9187,7.45115 92.5853,7.78448 94.5,7.5C 95.209,8.40397 96.209,8.73731 97.5,8.5C 98.209,9.40397 99.209,9.73731 100.5,9.5C 100.296,12.5176 99.9629,15.5176 99.5,18.5C 98.5655,19.5676 98.2322,20.901 98.5,22.5C 96.7424,25.8544 95.7424,29.521 95.5,33.5C 94.5655,34.5676 94.2322,35.901 94.5,37.5C 93.5655,38.5676 93.2322,39.901 93.5,41.5C 92.5655,42.5676 92.2322,43.901 92.5,45.5C 91.2616,47.2143 90.595,49.2143 90.5,51.5C 88.8333,51.5 87.1667,51.5 85.5,51.5C 84.4324,50.5655 83.099,50.2322 81.5,50.5C 80.4324,49.5655 79.099,49.2322 77.5,49.5C 76.4324,48.5655 75.099,48.2322 73.5,48.5C 72.4324,47.5655 71.099,47.2322 69.5,47.5C 67.1617,45.9605 64.4951,45.2938 61.5,45.5C 58.9446,43.4949 56.1112,43.1616 53,44.5C 51.2382,44.0556 51.4049,43.5556 53.5,43C 51.3049,42.5906 49.3049,43.0906 47.5,44.5C 47.7038,41.4824 48.0371,38.4824 48.5,35.5C 49.4345,34.4324 49.7678,33.099 49.5,31.5C 50.4345,30.4324 50.7678,29.099 50.5,27.5C 51.9238,25.4855 52.5905,23.1522 52.5,20.5C 53.4345,19.4324 53.7678,18.099 53.5,16.5C 54.4345,15.4324 54.7678,14.099 54.5,12.5C 55.4345,11.4324 55.7678,10.099 55.5,8.5C 56.9459,5.74577 57.9459,2.74577 58.5,-0.5 Z M 77.5,25.5 C 77.5,26.8333 77.5,28.1667 77.5,29.5C 76.209,29.7373 75.209,29.404 74.5,28.5C 73.0689,28.1193 72.2355,27.1193 72,25.5C 71.6667,26.5 71.3333,27.5 71,28.5C 70.5162,26.0871 70.8495,23.7538 72,21.5C 72.3333,22.1667 72.6667,22.8333 73,23.5C 74.0495,22.4829 75.2161,22.3162 76.5,23C 75.434,24.159 75.7673,24.9924 77.5,25.5 Z"/></g>
<g><path style="opacity:0.007" fill="#e32317" d="M 66.5,0.5 C 66.5,0.166667 66.5,-0.166667 66.5,-0.5C 67.5,-0.5 68.5,-0.5 69.5,-0.5C 68.791,0.403972 67.791,0.737305 66.5,0.5 Z"/></g>
<g><path style="opacity:0.008" fill="#e32317" d="M 70.5,1.5 C 71.2506,0.426544 72.2506,0.259877 73.5,1C 72.552,1.48278 71.552,1.64945 70.5,1.5 Z"/></g>
<g><path style="opacity:0.004" fill="#e22318" d="M -0.5,2.5 C -0.5,2.16667 -0.5,1.83333 -0.5,1.5C 39.5,1.83333 39.5,2.16667 -0.5,2.5 Z"/></g>
<g><path style="opacity:0.009" fill="#e42318" d="M 74.5,2.5 C 75.2506,1.42654 76.2506,1.25988 77.5,2C 76.552,2.48278 75.552,2.64945 74.5,2.5 Z"/></g>
<g><path style="opacity:0.004" fill="#e32318" d="M 104.5,2.5 C 113.991,1.34204 123.658,1.17537 133.5,2C 123.839,2.4998 114.172,2.66647 104.5,2.5 Z"/></g>
<g><path style="opacity:0.004" fill="#e22418" d="M 155.5,2.5 C 161.319,1.34745 167.319,1.18079 173.5,2C 167.509,2.49949 161.509,2.66615 155.5,2.5 Z"/></g>
<g><path style="opacity:0.004" fill="#e22418" d="M 265.5,2.5 C 258.492,2.66629 251.492,2.49962 244.5,2C 251.679,1.17874 258.679,1.3454 265.5,2.5 Z"/></g>
<g><path style="opacity:0.004" fill="#e22418" d="M 277.5,2.5 C 283.987,1.34602 290.654,1.17935 297.5,2C 290.842,2.49958 284.175,2.66625 277.5,2.5 Z"/></g>
<g><path style="opacity:0.008" fill="#e32318" d="M 32.5,3.5 C 32.8966,2.47498 33.5632,2.30831 34.5,3C 33.9056,3.46434 33.2389,3.63101 32.5,3.5 Z"/></g>
<g><path style="opacity:0.008" fill="#e32318" d="M 78.5,3.5 C 79.2506,2.42654 80.2506,2.25988 81.5,3C 80.552,3.48278 79.552,3.64945 78.5,3.5 Z"/></g>
<g><path style="opacity:0.964" fill="#e32318" d="M -0.5,3.5 C 10.5,3.5 21.5,3.5 32.5,3.5C 37.0399,5.3676 40.7065,8.3676 43.5,12.5C 43.5,15.5 43.5,18.5 43.5,21.5C 42.6618,21.8417 42.3284,22.5084 42.5,23.5C 41.8333,23.5 41.5,23.8333 41.5,24.5C 38.8333,25.8333 38.8333,27.1667 41.5,28.5C 41.6596,30.153 42.3263,31.4863 43.5,32.5C 45.0646,36.5271 46.3979,40.5271 47.5,44.5C 47.5,45.5 47.5,46.5 47.5,47.5C 40.5,47.5 33.5,47.5 26.5,47.5C 26.7373,46.209 26.404,45.209 25.5,44.5C 25.7947,42.2646 25.4614,40.2646 24.5,38.5C 24.7373,37.209 24.404,36.209 23.5,35.5C 23.1667,32.8333 22.8333,32.8333 22.5,35.5C 21.6773,38.977 21.1773,42.6437 21,46.5C 20.8261,41.3165 20.3261,36.3165 19.5,31.5C 18.5139,35.97 18.1805,40.6367 18.5,45.5C 12.8333,45.5 7.16667,45.5 1.5,45.5C 1.66656,32.1625 1.4999,18.8292 1,5.5C 0.831087,19.3395 0.331087,33.0061 -0.5,46.5C -0.5,32.1667 -0.5,17.8333 -0.5,3.5 Z M 21.5,14.5 C 20.6909,16.2922 20.1909,18.2922 20,20.5C 19.1859,18.0982 19.3526,15.7649 20.5,13.5C 21.1067,13.6236 21.44,13.9569 21.5,14.5 Z"/></g>
<g><path style="opacity:0.016" fill="#e32318" d="M 55.5,2.5 C 56.525,2.89657 56.6917,3.56323 56,4.5C 55.5357,3.90558 55.369,3.23891 55.5,2.5 Z"/></g>
<g><path style="opacity:0.014" fill="#e32318" d="M 82.5,4.5 C 82.8966,3.47498 83.5632,3.30831 84.5,4C 83.9056,4.46434 83.2389,4.63101 82.5,4.5 Z"/></g>
<g><path style="opacity:0.945" fill="#e32318" d="M 147.5,9.5 C 147.328,10.4916 147.662,11.1583 148.5,11.5C 148.5,14.5 148.5,17.5 148.5,20.5C 147.662,20.8417 147.328,21.5084 147.5,22.5C 146.833,22.5 146.5,22.8333 146.5,23.5C 145.167,23.8333 145.167,24.1667 146.5,24.5C 147.598,25.397 147.598,26.2303 146.5,27C 147.044,27.7172 147.711,28.2172 148.5,28.5C 148.796,30.403 149.463,32.0697 150.5,33.5C 150.5,34.5 150.5,35.5 150.5,36.5C 149.463,37.9303 148.796,39.597 148.5,41.5C 147.167,41.8333 147.167,42.1667 148.5,42.5C 147.833,43.8333 146.833,44.8333 145.5,45.5C 145.167,44.1667 144.833,44.1667 144.5,45.5C 143.508,45.3284 142.842,45.6618 142.5,46.5C 141.508,46.3284 140.842,46.6618 140.5,47.5C 138.833,47.5 137.167,47.5 135.5,47.5C 135.389,46.8826 135.056,46.3826 134.5,46C 124.506,45.5002 114.506,45.3335 104.5,45.5C 104.5,31.5 104.5,17.5 104.5,3.5C 115.505,3.33349 126.505,3.50015 137.5,4C 139.52,5.21659 141.52,5.38326 143.5,4.5C 143.764,6.49812 145.097,8.16478 147.5,9.5 Z M 124.5,28.5 C 125.239,28.369 125.906,28.5357 126.5,29C 125.718,31.7405 125.218,34.5738 125,37.5C 124.502,34.5184 124.335,31.5184 124.5,28.5 Z"/></g>
<g><path style="opacity:0.908" fill="#e32318" d="M 191.5,45.5 C 179.167,45.5 166.833,45.5 154.5,45.5C 154.5,31.5 154.5,17.5 154.5,3.5C 161.167,3.5 167.833,3.5 174.5,3.5C 174.333,14.1719 174.5,24.8385 175,35.5C 175.333,25.1667 175.667,14.8333 176,4.5C 176.5,14.1609 176.666,23.8276 176.5,33.5C 195.155,33.668 195.155,34.168 176.5,35C 181.489,35.4993 186.489,35.6659 191.5,35.5C 191.5,38.8333 191.5,42.1667 191.5,45.5 Z"/></g>
<g><path style="opacity:0.91" fill="#e32319" d="M 239.5,4.5 C 238.504,18.6569 238.171,32.9903 238.5,47.5C 224.496,47.6666 210.496,47.4999 196.5,47C 195.842,39.91 195.508,32.7433 195.5,25.5C 195.508,18.2567 195.842,11.09 196.5,4C 211.006,3.17252 225.339,3.33918 239.5,4.5 Z M 216.5,22.5 C 217.5,22.5 218.5,22.5 219.5,22.5C 219.5,24.5 219.5,26.5 219.5,28.5C 218.5,28.5 217.5,28.5 216.5,28.5C 216.5,26.5 216.5,24.5 216.5,22.5 Z"/></g>
<g><path style="opacity:0.944" fill="#e32318" d="M 265.5,2.5 C 266.078,4.18742 267.245,5.85409 269,7.5C 270.666,6.65975 270.833,7.15975 269.5,9C 270.025,9.69238 270.692,10.1924 271.5,10.5C 274.237,7.85067 276.237,5.184 277.5,2.5C 284.726,2.84862 291.726,3.84862 298.5,5.5C 297.833,5.5 297.5,5.83333 297.5,6.5C 296.662,6.84171 296.328,7.50838 296.5,8.5C 295.833,8.5 295.5,8.83333 295.5,9.5C 294.833,9.5 294.5,9.83333 294.5,10.5C 293.662,10.8417 293.328,11.5084 293.5,12.5C 292.833,12.5 292.5,12.8333 292.5,13.5C 291.833,13.5 291.5,13.8333 291.5,14.5C 290.833,14.5 290.5,14.8333 290.5,15.5C 289.662,15.8417 289.328,16.5084 289.5,17.5C 288.833,17.5 288.5,17.8333 288.5,18.5C 287.833,18.5 287.5,18.8333 287.5,19.5C 286.662,19.8417 286.328,20.5084 286.5,21.5C 285.833,21.5 285.5,21.8333 285.5,22.5C 284.833,22.5 284.5,22.8333 284.5,23.5C 283.711,23.7828 283.044,24.2828 282.5,25C 284.293,27.7953 286.46,30.2953 289,32.5C 290.666,31.6598 290.833,32.1598 289.5,34C 290.667,35.1667 291.833,36.3333 293,37.5C 294.666,36.6598 294.833,37.1598 293.5,39C 295.3,40.8119 296.967,42.6452 298.5,44.5C 298.5,45.1667 298.833,45.5 299.5,45.5C 299.5,46.1667 299.5,46.8333 299.5,47.5C 292.313,47.1755 285.313,47.5088 278.5,48.5C 277.833,47.5 277.167,46.5 276.5,45.5C 275.136,43.8089 273.803,42.1423 272.5,40.5C 272.167,39.1667 271.833,39.1667 271.5,40.5C 270.833,40.5 270.5,40.8333 270.5,41.5C 269.833,41.5 269.5,41.8333 269.5,42.5C 268.662,42.8417 268.328,43.5084 268.5,44.5C 267.833,44.5 267.5,44.8333 267.5,45.5C 266.833,45.5 266.5,45.8333 266.5,46.5C 265.833,46.5 265.5,46.8333 265.5,47.5C 258.159,47.6663 250.826,47.4997 243.5,47C 249.357,39.9771 255.024,32.8105 260.5,25.5C 259.113,23.79 257.779,22.1233 256.5,20.5C 255.136,18.8089 253.803,17.1423 252.5,15.5C 251.136,13.8089 249.803,12.1423 248.5,10.5C 247.136,8.80893 245.803,7.14226 244.5,5.5C 251.274,3.84862 258.274,2.84862 265.5,2.5 Z"/></g>
<g><path style="opacity:0.433" fill="#e22318" d="M 239.5,4.5 C 240.166,11.492 240.5,18.6587 240.5,26C 240.497,33.5325 239.831,40.6992 238.5,47.5C 238.171,32.9903 238.504,18.6569 239.5,4.5 Z"/></g>
<g><path style="opacity:0.008" fill="#e22418" d="M 243.5,5.5 C 242.833,4.16667 242.833,4.16667 243.5,5.5 Z"/></g>
<g><path style="opacity:0.849" fill="#e42318" d="M 19.5,31.5 C 19.5,36.8333 19.5,42.1667 19.5,47.5C 12.8333,47.5 6.16667,47.5 -0.5,47.5C -0.5,47.1667 -0.5,46.8333 -0.5,46.5C 0.331087,33.0061 0.831087,19.3395 1,5.5C 1.4999,18.8292 1.66656,32.1625 1.5,45.5C 7.16667,45.5 12.8333,45.5 18.5,45.5C 18.1805,40.6367 18.5139,35.97 19.5,31.5 Z"/></g>
<g><path style="opacity:0.016" fill="#e32318" d="M 89.5,6.5 C 90.2506,5.42654 91.2506,5.25988 92.5,6C 91.552,6.48278 90.552,6.64945 89.5,6.5 Z"/></g>
<g><path style="opacity:0.004" fill="#e32417" d="M 243.5,5.5 C 243.833,5.5 244.167,5.5 244.5,5.5C 244.315,6.17014 243.981,6.17014 243.5,5.5 Z"/></g>
<g><path style="opacity:0.008" fill="#e22318" d="M 298.5,5.5 C 298.833,5.5 299.167,5.5 299.5,5.5C 299.5,5.83333 299.5,6.16667 299.5,6.5C 299.167,6.16667 298.833,5.83333 298.5,5.5 Z"/></g>
<g><path style="opacity:0.008" fill="#e32318" d="M 55.5,8.5 C 54.4265,7.74943 54.2599,6.74943 55,5.5C 55.4828,6.44802 55.6495,7.44802 55.5,8.5 Z"/></g>
<g><path style="opacity:0.008" fill="#e32318" d="M 94.5,7.5 C 94.8966,6.47498 95.5632,6.30831 96.5,7C 95.9056,7.46434 95.2389,7.63101 94.5,7.5 Z"/></g>
<g><path style="opacity:0.016" fill="#e32318" d="M 152.5,4.5 C 153.661,18.6607 153.827,32.9941 153,47.5C 152.5,33.1705 152.333,18.8372 152.5,4.5 Z"/></g>
<g><path style="opacity:0.004" fill="#e32317" d="M 297.5,6.5 C 297.833,6.5 298.167,6.5 298.5,6.5C 298.672,7.49162 298.338,8.15829 297.5,8.5C 297.5,7.83333 297.5,7.16667 297.5,6.5 Z"/></g>
<g><path style="opacity:0.012" fill="#e32318" d="M 97.5,8.5 C 98.2506,7.42654 99.2506,7.25988 100.5,8C 99.552,8.48278 98.552,8.64945 97.5,8.5 Z"/></g>
<g><path style="opacity:0.008" fill="#e22318" d="M 147.5,8.5 C 148.833,9.16667 148.833,9.16667 147.5,8.5 Z"/></g>
<g><path style="opacity:0.008" fill="#e22417" d="M 296.5,8.5 C 296.833,8.5 297.167,8.5 297.5,8.5C 297.315,9.17014 296.981,9.17014 296.5,8.5 Z"/></g>
<g><path style="opacity:0.008" fill="#e32318" d="M 54.5,12.5 C 53.4265,11.7494 53.2599,10.7494 54,9.5C 54.4828,10.448 54.6495,11.448 54.5,12.5 Z"/></g>
<g><path style="opacity:0.004" fill="#e32418" d="M 102.5,11.5 C 102.369,10.7611 102.536,10.0944 103,9.5C 103.692,10.4368 103.525,11.1034 102.5,11.5 Z"/></g>
<g><path style="opacity:0.012" fill="#e32417" d="M 295.5,9.5 C 295.833,9.5 296.167,9.5 296.5,9.5C 296.315,10.1701 295.981,10.1701 295.5,9.5 Z"/></g>
<g><path style="opacity:0.008" fill="#e22318" d="M 148.5,10.5 C 149.833,11.1667 149.833,11.1667 148.5,10.5 Z"/></g>
<g><path style="opacity:0.008" fill="#e22318" d="M 248.5,10.5 C 247.833,11.1667 247.833,11.1667 248.5,10.5 Z"/></g>
<g><path style="opacity:0.008" fill="#e22418" d="M 294.5,10.5 C 294.833,10.5 295.167,10.5 295.5,10.5C 295.315,11.1701 294.981,11.1701 294.5,10.5 Z"/></g>
<g><path style="opacity:0.004" fill="#e32418" d="M 43.5,12.5 C 43.369,11.7611 43.5357,11.0944 44,10.5C 44.6917,11.4368 44.525,12.1034 43.5,12.5 Z"/></g>
<g><path style="opacity:0.009" fill="#e32418" d="M 102.5,11.5 C 102.649,12.552 102.483,13.552 102,14.5C 101.26,13.2506 101.427,12.2506 102.5,11.5 Z"/></g>
<g><path style="opacity:0.008" fill="#e22417" d="M 293.5,12.5 C 294.833,13.1667 294.833,13.1667 293.5,12.5 Z"/></g>
<g><path style="opacity:0.012" fill="#e32318" d="M 53.5,16.5 C 52.4265,15.7494 52.2599,14.7494 53,13.5C 53.4828,14.448 53.6495,15.448 53.5,16.5 Z"/></g>
<g><path style="opacity:0.012" fill="#e22418" d="M 292.5,13.5 C 292.833,13.5 293.167,13.5 293.5,13.5C 293.315,14.1701 292.981,14.1701 292.5,13.5 Z"/></g>
<g><path style="opacity:0.008" fill="#e32318" d="M 44.5,13.5 C 45.525,13.8966 45.6917,14.5632 45,15.5C 44.5357,14.9056 44.369,14.2389 44.5,13.5 Z"/></g>
<g><path style="opacity:0.012" fill="#e32417" d="M 291.5,14.5 C 291.833,14.5 292.167,14.5 292.5,14.5C 292.315,15.1701 291.981,15.1701 291.5,14.5 Z"/></g>
<g><path style="opacity:0.013" fill="#e32318" d="M 149.5,12.5 C 150.629,14.6282 150.796,16.9615 150,19.5C 149.503,17.1902 149.337,14.8568 149.5,12.5 Z"/></g>
<g><path style="opacity:0.008" fill="#e22417" d="M 252.5,15.5 C 251.833,16.1667 251.833,16.1667 252.5,15.5 Z"/></g>
<g><path style="opacity:0.006" fill="#e32318" d="M 290.5,15.5 C 290.833,15.5 291.167,15.5 291.5,15.5C 291.672,16.4916 291.338,17.1583 290.5,17.5C 290.5,16.8333 290.5,16.1667 290.5,15.5 Z"/></g>
<g><path style="opacity:0.008" fill="#e32318" d="M 100.5,15.5 C 101.525,15.8966 101.692,16.5632 101,17.5C 100.536,16.9056 100.369,16.2389 100.5,15.5 Z"/></g>
<g><path style="opacity:0.007" fill="#e32418" d="M 52.5,20.5 C 51.4265,19.7494 51.2599,18.7494 52,17.5C 52.4828,18.448 52.6495,19.448 52.5,20.5 Z"/></g>
<g><path style="opacity:0.008" fill="#e32317" d="M 289.5,17.5 C 289.833,17.5 290.167,17.5 290.5,17.5C 290.315,18.1701 289.981,18.1701 289.5,17.5 Z"/></g>
<g><path style="opacity:0.01" fill="#e32318" d="M 44.5,21.5 C 44.3505,20.448 44.5172,19.448 45,18.5C 45.7401,19.7494 45.5735,20.7494 44.5,21.5 Z"/></g>
<g><path style="opacity:0.008" fill="#e32318" d="M 99.5,18.5 C 100.573,19.2506 100.74,20.2506 100,21.5C 99.5172,20.552 99.3505,19.552 99.5,18.5 Z"/></g>
<g><path style="opacity:0.012" fill="#e22318" d="M 288.5,18.5 C 288.833,18.5 289.167,18.5 289.5,18.5C 289.315,19.1701 288.981,19.1701 288.5,18.5 Z"/></g>
<g><path style="opacity:0.012" fill="#e22318" d="M 287.5,19.5 C 287.833,19.5 288.167,19.5 288.5,19.5C 288.315,20.1701 287.981,20.1701 287.5,19.5 Z"/></g>
<g><path style="opacity:0.006" fill="#e32418" d="M 148.5,20.5 C 149.833,21.1667 149.833,21.8333 148.5,22.5C 148.5,21.8333 148.5,21.1667 148.5,20.5 Z"/></g>
<g><path style="opacity:0.012" fill="#e22318" d="M 256.5,20.5 C 255.833,21.1667 255.833,21.1667 256.5,20.5 Z"/></g>
<g><path style="opacity:0.006" fill="#e32319" d="M 43.5,21.5 C 43.8333,21.5 44.1667,21.5 44.5,21.5C 44.6716,22.4916 44.3382,23.1583 43.5,23.5C 43.5,22.8333 43.5,22.1667 43.5,21.5 Z"/></g>
<g><path style="opacity:0.014" fill="#e32317" d="M 50.5,21.5 C 51.525,21.8966 51.6917,22.5632 51,23.5C 50.5357,22.9056 50.369,22.2389 50.5,21.5 Z"/></g>
<g><path style="opacity:0.008" fill="#e22417" d="M 286.5,21.5 C 287.833,22.1667 287.833,22.1667 286.5,21.5 Z"/></g>
<g><path style="opacity:0.01" fill="#e32318" d="M 98.5,22.5 C 99.5735,23.2506 99.7401,24.2506 99,25.5C 98.5172,24.552 98.3505,23.552 98.5,22.5 Z"/></g>
<g><path style="opacity:0.008" fill="#e32418" d="M 147.5,22.5 C 147.833,22.5 148.167,22.5 148.5,22.5C 148.315,23.1701 147.981,23.1701 147.5,22.5 Z"/></g>
<g><path style="opacity:0.008" fill="#e22418" d="M 285.5,22.5 C 285.833,22.5 286.167,22.5 286.5,22.5C 286.315,23.1701 285.981,23.1701 285.5,22.5 Z"/></g>
<g><path style="opacity:0.012" fill="#e22318" d="M 42.5,23.5 C 42.8333,23.5 43.1667,23.5 43.5,23.5C 43.3147,24.1701 42.9813,24.1701 42.5,23.5 Z"/></g>
<g><path style="opacity:0.008" fill="#e22417" d="M 146.5,23.5 C 146.833,23.5 147.167,23.5 147.5,23.5C 147.315,24.1701 146.981,24.1701 146.5,23.5 Z"/></g>
<g><path style="opacity:0.012" fill="#e22417" d="M 284.5,23.5 C 284.833,23.5 285.167,23.5 285.5,23.5C 285.315,24.1701 284.981,24.1701 284.5,23.5 Z"/></g>
<g><path style="opacity:0.004" fill="#e22317" d="M 41.5,24.5 C 41.8333,24.5 42.1667,24.5 42.5,24.5C 42.3147,25.1701 41.9813,25.1701 41.5,24.5 Z"/></g>
<g><path style="opacity:0.006" fill="#e32318" d="M 50.5,27.5 C 49.4265,26.7494 49.2599,25.7494 50,24.5C 50.4828,25.448 50.6495,26.448 50.5,27.5 Z"/></g>
<g><path style="opacity:0.01" fill="#e32318" d="M 97.5,26.5 C 98.5735,27.2506 98.7401,28.2506 98,29.5C 97.5172,28.552 97.3505,27.552 97.5,26.5 Z"/></g>
<g><path style="opacity:0.008" fill="#e22417" d="M 41.5,27.5 C 42.8333,28.1667 42.8333,28.1667 41.5,27.5 Z"/></g>
<g><path style="opacity:0.024" fill="#e32318" d="M 74.5,28.5 C 74.7828,27.7109 75.2828,27.0442 76,26.5C 76.5281,27.816 76.0281,28.4827 74.5,28.5 Z"/></g>
<g><path style="opacity:0.004" fill="#e32418" d="M 148.5,27.5 C 149.833,28.1667 149.833,28.1667 148.5,27.5 Z"/></g>
<g><path style="opacity:0.008" fill="#e32318" d="M 49.5,31.5 C 48.4265,30.7494 48.2599,29.7494 49,28.5C 49.4828,29.448 49.6495,30.448 49.5,31.5 Z"/></g>
<g><path style="opacity:0.004" fill="#e32319" d="M 44.5,32.5 C 44.1667,32.5 43.8333,32.5 43.5,32.5C 43.8333,29.8333 44.1667,29.8333 44.5,32.5 Z"/></g>
<g><path style="opacity:0.014" fill="#e32417" d="M 96.5,30.5 C 97.525,30.8966 97.6917,31.5632 97,32.5C 96.5357,31.9056 96.369,31.2389 96.5,30.5 Z"/></g>
<g><path style="opacity:0.012" fill="#e32418" d="M 150.5,33.5 C 150.351,32.448 150.517,31.448 151,30.5C 151.74,31.7494 151.573,32.7494 150.5,33.5 Z"/></g>
<g><path style="opacity:0.008" fill="#e22317" d="M 44.5,32.5 C 45.8333,33.1667 45.8333,33.1667 44.5,32.5 Z"/></g>
<g><path style="opacity:0.008" fill="#e32418" d="M 48.5,35.5 C 47.4265,34.7494 47.2599,33.7494 48,32.5C 48.4828,33.448 48.6495,34.448 48.5,35.5 Z"/></g>
<g><path style="opacity:0.008" fill="#e32318" d="M 95.5,33.5 C 96.5735,34.2506 96.7401,35.2506 96,36.5C 95.5172,35.552 95.3505,34.552 95.5,33.5 Z"/></g>
<g><path style="opacity:0.01" fill="#e32318" d="M 22.5,35.5 C 22.8333,35.5 23.1667,35.5 23.5,35.5C 23.1667,38.1667 22.8333,38.1667 22.5,35.5 Z"/></g>
<g><path style="opacity:0.008" fill="#e32318" d="M 192.5,36.5 C 193.643,39.9758 193.81,43.6425 193,47.5C 192.501,43.8484 192.335,40.1817 192.5,36.5 Z"/></g>
<g><path style="opacity:0.007" fill="#e32317" d="M 94.5,37.5 C 95.5735,38.2506 95.7401,39.2506 95,40.5C 94.5172,39.552 94.3505,38.552 94.5,37.5 Z"/></g>
<g><path style="opacity:0.01" fill="#e32318" d="M 150.5,36.5 C 151.573,37.2506 151.74,38.2506 151,39.5C 150.517,38.552 150.351,37.552 150.5,36.5 Z"/></g>
<g><path style="opacity:0.008" fill="#e32418" d="M 24.5,38.5 C 24.6495,39.552 24.4828,40.552 24,41.5C 23.2599,40.2506 23.4265,39.2506 24.5,38.5 Z"/></g>
<g><path style="opacity:0.008" fill="#e32318" d="M 149.5,40.5 C 150.833,41.1667 150.833,41.1667 149.5,40.5 Z"/></g>
<g><path style="opacity:0.008" fill="#e32418" d="M 93.5,41.5 C 94.5735,42.2506 94.7401,43.2506 94,44.5C 93.5172,43.552 93.3505,42.552 93.5,41.5 Z"/></g>
<g><path style="opacity:0.004" fill="#e22317" d="M 148.5,41.5 C 148.833,41.5 149.167,41.5 149.5,41.5C 149.315,42.1701 148.981,42.1701 148.5,41.5 Z"/></g>
<g><path style="opacity:0.008" fill="#e42318" d="M 271.5,40.5 C 271.833,40.5 272.167,40.5 272.5,40.5C 272.5,41.8333 271.833,42.5 270.5,42.5C 270.5,42.1667 270.5,41.8333 270.5,41.5C 271.167,41.5 271.5,41.1667 271.5,40.5 Z"/></g>
<g><path style="opacity:0.006" fill="#e32419" d="M 269.5,42.5 C 269.833,42.5 270.167,42.5 270.5,42.5C 270.672,43.4916 270.338,44.1583 269.5,44.5C 269.5,43.8333 269.5,43.1667 269.5,42.5 Z"/></g>
<g><path style="opacity:0.016" fill="#e32418" d="M 299.5,43.5 C 299.5,43.8333 299.5,44.1667 299.5,44.5C 298.83,44.0187 298.83,43.6853 299.5,43.5 Z"/></g>
<g><path style="opacity:0.008" fill="#e32418" d="M 268.5,44.5 C 268.833,44.5 269.167,44.5 269.5,44.5C 269.315,45.1701 268.981,45.1701 268.5,44.5 Z"/></g>
<g><path style="opacity:0.006" fill="#e32318" d="M 25.5,44.5 C 25.6495,45.552 25.4828,46.552 25,47.5C 24.2599,46.2506 24.4265,45.2506 25.5,44.5 Z"/></g>
<g><path style="opacity:0.004" fill="#e32417" d="M 48.5,45.5 C 49.8333,46.1667 49.8333,46.1667 48.5,45.5 Z"/></g>
<g><path style="opacity:0.006" fill="#e42318" d="M 61.5,45.5 C 60.7494,46.5735 59.7494,46.7401 58.5,46C 59.448,45.5172 60.448,45.3505 61.5,45.5 Z"/></g>
<g><path style="opacity:0.008" fill="#e32318" d="M 92.5,45.5 C 93.5735,46.2506 93.7401,47.2506 93,48.5C 92.5172,47.552 92.3505,46.552 92.5,45.5 Z"/></g>
<g><path style="opacity:0.685" fill="#e32317" d="M 104.5,45.5 C 114.506,45.3335 124.506,45.5002 134.5,46C 135.056,46.3826 135.389,46.8826 135.5,47.5C 124.779,48.1419 114.446,47.4753 104.5,45.5 Z"/></g>
<g><path style="opacity:0.008" fill="#e32318" d="M 144.5,45.5 C 144.833,45.5 145.167,45.5 145.5,45.5C 145.315,46.1701 144.981,46.1701 144.5,45.5 Z"/></g>
<g><path style="opacity:0.673" fill="#e32317" d="M 154.5,45.5 C 166.833,45.5 179.167,45.5 191.5,45.5C 185.705,46.8296 179.538,47.4962 173,47.5C 166.462,47.4962 160.295,46.8296 154.5,45.5 Z"/></g>
<g><path style="opacity:0.008" fill="#e32418" d="M 267.5,45.5 C 267.833,45.5 268.167,45.5 268.5,45.5C 268.315,46.1701 267.981,46.1701 267.5,45.5 Z"/></g>
<g><path style="opacity:0.008" fill="#e32317" d="M 276.5,45.5 C 275.833,46.1667 275.833,46.1667 276.5,45.5 Z"/></g>
<g><path style="opacity:0.008" fill="#e32418" d="M 142.5,47.5 C 142.5,47.1667 142.5,46.8333 142.5,46.5C 143.167,46.5 143.833,46.5 144.5,46.5C 144.158,47.3382 143.492,47.6716 142.5,47.5 Z"/></g>
<g><path style="opacity:0.004" fill="#e32318" d="M 266.5,46.5 C 266.833,46.5 267.167,46.5 267.5,46.5C 267.315,47.1701 266.981,47.1701 266.5,46.5 Z"/></g>
<g><path style="opacity:0.012" fill="#e32318" d="M 69.5,47.5 C 68.7494,48.5735 67.7494,48.7401 66.5,48C 67.448,47.5172 68.448,47.3505 69.5,47.5 Z"/></g>
<g><path style="opacity:0.008" fill="#e32318" d="M 140.5,47.5 C 141.167,47.5 141.833,47.5 142.5,47.5C 141.833,48.8333 141.167,48.8333 140.5,47.5 Z"/></g>
<g><path style="opacity:0.004" fill="#e22317" d="M 265.5,47.5 C 265.833,47.5 266.167,47.5 266.5,47.5C 266.315,48.1701 265.981,48.1701 265.5,47.5 Z"/></g>
<g><path style="opacity:0.012" fill="#e32317" d="M -0.5,49.5 C -0.5,49.1667 -0.5,48.8333 -0.5,48.5C 24.8333,48.8333 24.8333,49.1667 -0.5,49.5 Z"/></g>
<g><path style="opacity:0.012" fill="#e32317" d="M 26.5,49.5 C 32.987,48.346 39.6536,48.1794 46.5,49C 39.8417,49.4996 33.175,49.6663 26.5,49.5 Z"/></g>
<g><path style="opacity:0.016" fill="#e32318" d="M 73.5,48.5 C 73.1034,49.525 72.4368,49.6917 71.5,49C 72.0944,48.5357 72.7611,48.369 73.5,48.5 Z"/></g>
<g><path style="opacity:0.012" fill="#e32318" d="M 104.5,49.5 C 115.659,48.3407 126.992,48.1741 138.5,49C 127.172,49.4999 115.838,49.6665 104.5,49.5 Z"/></g>
<g><path style="opacity:0.011" fill="#e32317" d="M 154.5,49.5 C 166.66,48.3401 178.993,48.1735 191.5,49C 179.171,49.4999 166.838,49.6665 154.5,49.5 Z"/></g>
<g><path style="opacity:0.008" fill="#e32318" d="M 196.5,49.5 C 210.661,48.3392 224.994,48.1725 239.5,49C 225.171,49.4999 210.837,49.6666 196.5,49.5 Z"/></g>
<g><path style="opacity:0.012" fill="#e32317" d="M 265.5,48.5 C 258.679,49.6546 251.679,49.8213 244.5,49C 251.492,48.5004 258.492,48.3337 265.5,48.5 Z"/></g>
<g><path style="opacity:0.012" fill="#e32317" d="M 278.5,48.5 C 285.5,48.5 292.5,48.5 299.5,48.5C 299.5,48.8333 299.5,49.1667 299.5,49.5C 292.313,49.8245 285.313,49.4912 278.5,48.5 Z"/></g>
<g><path style="opacity:0.012" fill="#e32318" d="M 77.5,49.5 C 76.7494,50.5735 75.7494,50.7401 74.5,50C 75.448,49.5172 76.448,49.3505 77.5,49.5 Z"/></g>
<g><path style="opacity:0.012" fill="#e32418" d="M 92.5,51.5 C 92.1667,51.5 91.8333,51.5 91.5,51.5C 91.8333,48.8333 92.1667,48.8333 92.5,51.5 Z"/></g>
<g><path style="opacity:0.008" fill="#e32318" d="M 78.5,51.5 C 79.209,50.596 80.209,50.2627 81.5,50.5C 81.5,50.8333 81.5,51.1667 81.5,51.5C 80.5,51.5 79.5,51.5 78.5,51.5 Z"/></g>
</svg>
