<?xml version="1.0" encoding="UTF-8"?>
<!DOCTYPE svg PUBLIC "-//W3C//DTD SVG 1.1//EN" "http://www.w3.org/Graphics/SVG/1.1/DTD/svg11.dtd">
<svg xmlns="http://www.w3.org/2000/svg" version="1.1" width="300px" height="52px" style="shape-rendering:geometricPrecision; text-rendering:geometricPrecision; image-rendering:optimizeQuality; fill-rule:evenodd; clip-rule:evenodd" xmlns:xlink="http://www.w3.org/1999/xlink">
<g><path style="opacity:0.012" fill="#fefffe" d="M 56.5,-0.5 C 56.8333,-0.5 57.1667,-0.5 57.5,-0.5C 57.5,-0.166667 57.5,0.166667 57.5,0.5C 57.1667,0.166667 56.8333,-0.166667 56.5,-0.5 Z"/></g>
<g><path style="opacity:0.923" fill="#fefffe" d="M 58.5,-0.5 C 60.1667,-0.5 61.8333,-0.5 63.5,-0.5C 64.5676,0.434475 65.901,0.767809 67.5,0.5C 68.5676,1.43448 69.901,1.76781 71.5,1.5C 73.8383,3.03954 76.5049,3.70621 79.5,3.5C 81.5145,4.92381 83.8478,5.59047 86.5,5.5C 87.5676,6.43448 88.901,6.76781 90.5,6.5C 91.5676,7.43448 92.901,7.76781 94.5,7.5C 96.2143,8.73838 98.2143,9.40505 100.5,9.5C 100.5,11.1667 100.5,12.8333 100.5,14.5C 99.5655,15.5676 99.2322,16.901 99.5,18.5C 97.9605,20.8383 97.2938,23.5049 97.5,26.5C 96.0762,28.5145 95.4095,30.8478 95.5,33.5C 94.5655,34.5676 94.2322,35.901 94.5,37.5C 93.5655,38.5676 93.2322,39.901 93.5,41.5C 91.9605,43.8383 91.2938,46.5049 91.5,49.5C 90.6618,49.8417 90.3284,50.5084 90.5,51.5C 88.8333,51.5 87.1667,51.5 85.5,51.5C 84.4324,50.5655 83.099,50.2322 81.5,50.5C 80.4324,49.5655 79.099,49.2322 77.5,49.5C 75.1617,47.9605 72.4951,47.2938 69.5,47.5C 67.4855,46.0762 65.1522,45.4095 62.5,45.5C 60.0948,44.2318 57.4282,43.5651 54.5,43.5C 52.7749,42.095 50.7749,41.595 48.5,42C 50.9011,42.805 50.7344,43.6383 48,44.5C 47.5065,42.8659 47.3398,41.1992 47.5,39.5C 48.7682,37.0948 49.4349,34.4282 49.5,31.5C 50.4345,30.4324 50.7678,29.099 50.5,27.5C 51.4345,26.4324 51.7678,25.099 51.5,23.5C 52.4345,22.4324 52.7678,21.099 52.5,19.5C 54.2576,16.1456 55.2576,12.479 55.5,8.5C 56.4345,7.43236 56.7678,6.09903 56.5,4.5C 57.4345,3.43236 57.7678,2.09903 57.5,0.5C 58.1667,0.5 58.5,0.166667 58.5,-0.5 Z M 77.5,25.5 C 77.7373,26.791 77.404,27.791 76.5,28.5C 75.7494,29.5735 74.7494,29.7401 73.5,29C 73.7937,27.3464 73.127,25.8464 71.5,24.5C 71.3287,21.2027 71.9954,20.8694 73.5,23.5C 73.8333,22.8333 74.1667,22.1667 74.5,21.5C 75.4555,22.872 76.4555,24.2053 77.5,25.5 Z"/></g>
<g><path style="opacity:0.008" fill="#fefffe" d="M 67.5,0.5 C 67.5,0.166667 67.5,-0.166667 67.5,-0.5C 68.5,-0.5 69.5,-0.5 70.5,-0.5C 69.791,0.403972 68.791,0.737305 67.5,0.5 Z"/></g>
<g><path style="opacity:0.007" fill="#fefffe" d="M 71.5,1.5 C 72.2506,0.426544 73.2506,0.259877 74.5,1C 73.552,1.48278 72.552,1.64945 71.5,1.5 Z"/></g>
<g><path style="opacity:0.011" fill="#fefffe" d="M -0.5,2.5 C -0.5,2.16667 -0.5,1.83333 -0.5,1.5C 10.6794,1.17207 21.6794,1.5054 32.5,2.5C 21.5,2.5 10.5,2.5 -0.5,2.5 Z"/></g>
<g><path style="opacity:0.008" fill="#fefffe" d="M 56.5,4.5 C 55.4265,3.74943 55.2599,2.74943 56,1.5C 56.4828,2.44802 56.6495,3.44802 56.5,4.5 Z"/></g>
<g><path style="opacity:0.009" fill="#fefffe" d="M 75.5,2.5 C 76.2506,1.42654 77.2506,1.25988 78.5,2C 77.552,2.48278 76.552,2.64945 75.5,2.5 Z"/></g>
<g><path style="opacity:0.011" fill="#fefffe" d="M 137.5,2.5 C 126.495,2.66651 115.495,2.49985 104.5,2C 115.674,1.17431 126.674,1.34097 137.5,2.5 Z"/></g>
<g><path style="opacity:0.012" fill="#fefffe" d="M 154.5,2.5 C 160.987,1.34602 167.654,1.17935 174.5,2C 167.842,2.49958 161.175,2.66625 154.5,2.5 Z"/></g>
<g><path style="opacity:0.012" fill="#fefffe" d="M 196.5,2.5 C 210.661,1.33918 224.994,1.17252 239.5,2C 225.171,2.49991 210.837,2.66658 196.5,2.5 Z"/></g>
<g><path style="opacity:0.012" fill="#fefffe" d="M 265.5,2.5 C 258.492,2.66629 251.492,2.49962 244.5,2C 251.679,1.17874 258.679,1.3454 265.5,2.5 Z"/></g>
<g><path style="opacity:0.012" fill="#fefffe" d="M 277.5,2.5 C 284.321,1.3454 291.321,1.17874 298.5,2C 291.508,2.49962 284.508,2.66629 277.5,2.5 Z"/></g>
<g><path style="opacity:0.919" fill="#fefffe" d="M 32.5,2.5 C 35.5983,2.41253 35.9316,2.91253 33.5,4C 35.7932,5.69529 38.1266,6.36196 40.5,6C 40.1667,6.33333 39.8333,6.66667 39.5,7C 43.0271,11.1655 44.3605,15.9989 43.5,21.5C 42.6618,21.8417 42.3284,22.5084 42.5,23.5C 41.8333,23.5 41.5,23.8333 41.5,24.5C 40.5222,24.811 39.8555,25.4777 39.5,26.5C 41.5259,29.8968 43.5259,33.2301 45.5,36.5C 45.2627,37.791 45.596,38.791 46.5,39.5C 46.2924,41.9201 46.6258,44.2534 47.5,46.5C 40.5316,47.497 33.5316,47.8303 26.5,47.5C 26.1417,44.3112 25.475,41.3112 24.5,38.5C 24.7373,37.209 24.404,36.209 23.5,35.5C 23.1667,32.8333 22.8333,32.8333 22.5,35.5C 21.6773,38.977 21.1773,42.6437 21,46.5C 20.6667,41.5 20.3333,36.5 20,31.5C 19.5006,36.8229 19.334,42.1563 19.5,47.5C 12.8333,47.5 6.16667,47.5 -0.5,47.5C -0.5,32.8333 -0.5,18.1667 -0.5,3.5C 10.6794,3.82793 21.6794,3.4946 32.5,2.5 Z M 21.5,19.5 C 21.44,20.0431 21.1067,20.3764 20.5,20.5C 19.3526,18.2351 19.1859,15.9018 20,13.5C 20.1909,15.7078 20.6909,17.7078 21.5,19.5 Z M 22.5,15.5 C 23.1239,15.9169 23.4573,16.5836 23.5,17.5C 23.2528,18.7133 22.5862,19.38 21.5,19.5C 22.2341,18.2921 22.5674,16.9587 22.5,15.5 Z"/></g>
<g><path style="opacity:0.012" fill="#fefffe" d="M 79.5,3.5 C 79.8966,2.47498 80.5632,2.30831 81.5,3C 80.9056,3.46434 80.2389,3.63101 79.5,3.5 Z"/></g>
<g><path style="opacity:0.008" fill="#fefffe" d="M 137.5,3.5 C 137.5,3.16667 137.5,2.83333 137.5,2.5C 141.5,2.83333 141.5,3.16667 137.5,3.5 Z"/></g>
<g><path style="opacity:0.907" fill="#fefffe" d="M 265.5,2.5 C 267.017,5.53467 269.183,8.20134 272,10.5C 274.233,8.52175 275.4,6.35508 275.5,4C 279.333,3.83333 283.167,3.66667 287,3.5C 291.229,3.51016 295.062,4.17683 298.5,5.5C 297.094,5.97306 296.427,6.97306 296.5,8.5C 295.833,8.5 295.5,8.83333 295.5,9.5C 294.833,9.5 294.5,9.83333 294.5,10.5C 293.167,10.8333 293.167,11.1667 294.5,11.5C 294.672,12.4916 294.338,13.1583 293.5,13.5C 293.167,12.1667 292.833,12.1667 292.5,13.5C 291.833,13.5 291.5,13.8333 291.5,14.5C 290.833,14.5 290.5,14.8333 290.5,15.5C 289.662,15.8417 289.328,16.5084 289.5,17.5C 288.833,17.5 288.5,17.8333 288.5,18.5C 287.833,18.5 287.5,18.8333 287.5,19.5C 286.662,19.8417 286.328,20.5084 286.5,21.5C 285.833,21.5 285.5,21.8333 285.5,22.5C 284.833,22.5 284.5,22.8333 284.5,23.5C 283.142,25.7428 283.808,27.4095 286.5,28.5C 288.252,32.31 290.752,35.6433 294,38.5C 295.666,37.6598 295.833,38.1598 294.5,40C 295.705,41.3756 297.038,42.5423 298.5,43.5C 298.328,44.4916 298.662,45.1583 299.5,45.5C 299.5,46.1667 299.5,46.8333 299.5,47.5C 291.559,48.0806 283.892,47.4139 276.5,45.5C 275.252,43.3509 273.752,41.3509 272,39.5C 271.283,40.0442 270.783,40.7109 270.5,41.5C 269.833,41.5 269.5,41.8333 269.5,42.5C 268.662,42.8417 268.328,43.5084 268.5,44.5C 267.833,44.5 267.5,44.8333 267.5,45.5C 266.833,46.5 266.167,47.5 265.5,48.5C 258.655,47.8334 251.655,47.1667 244.5,46.5C 249.066,40.0899 254.399,33.0899 260.5,25.5C 257.237,20.0691 252.737,14.4025 247,8.5C 245.334,9.34025 245.167,8.84025 246.5,7C 245.643,6.31091 244.977,5.47758 244.5,4.5C 251.655,3.83327 258.655,3.1666 265.5,2.5 Z"/></g>
<g><path style="opacity:0.01" fill="#fefffe" d="M 83.5,4.5 C 83.8966,3.47498 84.5632,3.30831 85.5,4C 84.9056,4.46434 84.2389,4.63101 83.5,4.5 Z"/></g>
<g><path style="opacity:0.897" fill="#fefffe" d="M 137.5,3.5 C 146.301,5.66502 149.968,11.3317 148.5,20.5C 147.662,20.8417 147.328,21.5084 147.5,22.5C 146.833,22.5 146.5,22.8333 146.5,23.5C 145.167,23.8333 145.167,24.1667 146.5,24.5C 146.389,25.1174 146.056,25.6174 145.5,26C 147.07,27.3968 148.404,28.8968 149.5,30.5C 150.7,34.2632 150.366,37.9299 148.5,41.5C 147.833,41.5 147.5,41.8333 147.5,42.5C 146.167,42.8333 146.167,43.1667 147.5,43.5C 147.167,44.5 146.5,45.1667 145.5,45.5C 145.167,44.1667 144.833,44.1667 144.5,45.5C 143.508,45.3284 142.842,45.6618 142.5,46.5C 139.833,46.8333 139.833,47.1667 142.5,47.5C 141.791,48.404 140.791,48.7373 139.5,48.5C 127.765,47.8239 115.931,47.1572 104,46.5C 103.333,32.5 103.333,18.5 104,4.5C 115.085,3.51259 126.252,3.17925 137.5,3.5 Z"/></g>
<g><path style="opacity:0.011" fill="#fefffe" d="M 152.5,3.5 C 153.661,17.9942 153.828,32.6609 153,47.5C 152.5,32.8371 152.333,18.1705 152.5,3.5 Z"/></g>
<g><path style="opacity:0.874" fill="#fefffe" d="M 154.5,3.5 C 161.167,3.5 167.833,3.5 174.5,3.5C 174.667,46.1615 175.167,46.1615 176,3.5C 176.5,13.4944 176.666,23.4944 176.5,33.5C 196.489,33.6678 196.489,34.1678 176.5,35C 181.489,35.4993 186.489,35.6659 191.5,35.5C 191.5,39.5 191.5,43.5 191.5,47.5C 179.167,47.5 166.833,47.5 154.5,47.5C 154.5,32.8333 154.5,18.1667 154.5,3.5 Z"/></g>
<g><path style="opacity:0.923" fill="#fefffe" d="M 196.5,3.5 C 211.167,3.5 225.833,3.5 240.5,3.5C 240.5,18.1667 240.5,32.8333 240.5,47.5C 225.833,47.5 211.167,47.5 196.5,47.5C 196.5,32.8333 196.5,18.1667 196.5,3.5 Z M 216.5,21.5 C 217.5,21.5 218.5,21.5 219.5,21.5C 219.5,23.8333 219.5,26.1667 219.5,28.5C 218.5,28.5 217.5,28.5 216.5,28.5C 216.5,26.1667 216.5,23.8333 216.5,21.5 Z"/></g>
<g><path style="opacity:0.004" fill="#fefffe" d="M 242.5,3.5 C 243.525,3.89657 243.692,4.56323 243,5.5C 242.536,4.90558 242.369,4.23891 242.5,3.5 Z"/></g>
<g><path style="opacity:0.009" fill="#fefffe" d="M 86.5,5.5 C 87.2506,4.42654 88.2506,4.25988 89.5,5C 88.552,5.48278 87.552,5.64945 86.5,5.5 Z"/></g>
<g><path style="opacity:0.007" fill="#fefffe" d="M 55.5,8.5 C 54.4265,7.74943 54.2599,6.74943 55,5.5C 55.4828,6.44802 55.6495,7.44802 55.5,8.5 Z"/></g>
<g><path style="opacity:0.008" fill="#fefffe" d="M 90.5,6.5 C 91.2506,5.42654 92.2506,5.25988 93.5,6C 92.552,6.48278 91.552,6.64945 90.5,6.5 Z"/></g>
<g><path style="opacity:0.008" fill="#fefffe" d="M 298.5,5.5 C 298.833,5.5 299.167,5.5 299.5,5.5C 299.5,5.83333 299.5,6.16667 299.5,6.5C 299.167,6.16667 298.833,5.83333 298.5,5.5 Z"/></g>
<g><path style="opacity:0.008" fill="#fefffe" d="M 94.5,7.5 C 95.2506,6.42654 96.2506,6.25988 97.5,7C 96.552,7.48278 95.552,7.64945 94.5,7.5 Z"/></g>
<g><path style="opacity:0.012" fill="#fefffe" d="M 98.5,8.5 C 98.8966,7.47498 99.5632,7.30831 100.5,8C 99.9056,8.46434 99.2389,8.63101 98.5,8.5 Z"/></g>
<g><path style="opacity:0.004" fill="#fefffe" d="M 297.5,7.5 C 298.833,8.16667 298.833,8.16667 297.5,7.5 Z"/></g>
<g><path style="opacity:0.012" fill="#fefffe" d="M 296.5,8.5 C 296.833,8.5 297.167,8.5 297.5,8.5C 297.315,9.17014 296.981,9.17014 296.5,8.5 Z"/></g>
<g><path style="opacity:0.008" fill="#fefffe" d="M 295.5,9.5 C 295.833,9.5 296.167,9.5 296.5,9.5C 296.315,10.1701 295.981,10.1701 295.5,9.5 Z"/></g>
<g><path style="opacity:0.008" fill="#fefffe" d="M 101.5,14.5 C 101.343,13.1266 101.51,11.7932 102,10.5C 102.765,12.0657 102.598,13.3991 101.5,14.5 Z"/></g>
<g><path style="opacity:0.008" fill="#fefffe" d="M 294.5,10.5 C 294.833,10.5 295.167,10.5 295.5,10.5C 295.315,11.1701 294.981,11.1701 294.5,10.5 Z"/></g>
<g><path style="opacity:0.008" fill="#fefffe" d="M 149.5,20.5 C 149.335,17.4816 149.502,14.4816 150,11.5C 150.805,14.6965 150.638,17.6965 149.5,20.5 Z"/></g>
<g><path style="opacity:0.01" fill="#fefffe" d="M 44.5,21.5 C 44.3354,18.4816 44.502,15.4816 45,12.5C 45.8045,15.6965 45.6378,18.6965 44.5,21.5 Z"/></g>
<g><path style="opacity:0.008" fill="#fefffe" d="M 292.5,13.5 C 292.833,13.5 293.167,13.5 293.5,13.5C 293.315,14.1701 292.981,14.1701 292.5,13.5 Z"/></g>
<g><path style="opacity:0.008" fill="#fefffe" d="M 100.5,14.5 C 100.833,14.5 101.167,14.5 101.5,14.5C 101.167,18.5 100.833,18.5 100.5,14.5 Z"/></g>
<g><path style="opacity:0.008" fill="#fefffe" d="M 291.5,14.5 C 291.833,14.5 292.167,14.5 292.5,14.5C 292.315,15.1701 291.981,15.1701 291.5,14.5 Z"/></g>
<g><path style="opacity:0.006" fill="#fefffe" d="M 290.5,15.5 C 290.833,15.5 291.167,15.5 291.5,15.5C 291.672,16.4916 291.338,17.1583 290.5,17.5C 290.5,16.8333 290.5,16.1667 290.5,15.5 Z"/></g>
<g><path style="opacity:0.01" fill="#fefffe" d="M 52.5,19.5 C 51.475,19.1034 51.3083,18.4368 52,17.5C 52.4643,18.0944 52.631,18.7611 52.5,19.5 Z"/></g>
<g><path style="opacity:0.008" fill="#fefffe" d="M 289.5,17.5 C 289.833,17.5 290.167,17.5 290.5,17.5C 290.315,18.1701 289.981,18.1701 289.5,17.5 Z"/></g>
<g><path style="opacity:0.007" fill="#fefffe" d="M 99.5,18.5 C 100.573,19.2506 100.74,20.2506 100,21.5C 99.5172,20.552 99.3505,19.552 99.5,18.5 Z"/></g>
<g><path style="opacity:0.012" fill="#fefffe" d="M 288.5,18.5 C 288.833,18.5 289.167,18.5 289.5,18.5C 289.315,19.1701 288.981,19.1701 288.5,18.5 Z"/></g>
<g><path style="opacity:0.008" fill="#fefffe" d="M 287.5,19.5 C 287.833,19.5 288.167,19.5 288.5,19.5C 288.672,20.4916 288.338,21.1583 287.5,21.5C 287.5,20.8333 287.5,20.1667 287.5,19.5 Z"/></g>
<g><path style="opacity:0.008" fill="#fefffe" d="M 51.5,23.5 C 50.4265,22.7494 50.2599,21.7494 51,20.5C 51.4828,21.448 51.6495,22.448 51.5,23.5 Z"/></g>
<g><path style="opacity:0.008" fill="#fefffe" d="M 148.5,20.5 C 148.833,20.5 149.167,20.5 149.5,20.5C 149.315,21.1701 148.981,21.1701 148.5,20.5 Z"/></g>
<g><path style="opacity:0.012" fill="#fefffe" d="M 43.5,21.5 C 43.8333,21.5 44.1667,21.5 44.5,21.5C 44.3147,22.1701 43.9813,22.1701 43.5,21.5 Z"/></g>
<g><path style="opacity:0.008" fill="#fefffe" d="M 286.5,21.5 C 286.833,21.5 287.167,21.5 287.5,21.5C 287.315,22.1701 286.981,22.1701 286.5,21.5 Z"/></g>
<g><path style="opacity:0.009" fill="#fefffe" d="M 98.5,22.5 C 99.5735,23.2506 99.7401,24.2506 99,25.5C 98.5172,24.552 98.3505,23.552 98.5,22.5 Z"/></g>
<g><path style="opacity:0.004" fill="#fefffe" d="M 147.5,22.5 C 148.833,23.1667 148.833,23.1667 147.5,22.5 Z"/></g>
<g><path style="opacity:0.012" fill="#fefffe" d="M 285.5,22.5 C 285.833,22.5 286.167,22.5 286.5,22.5C 286.315,23.1701 285.981,23.1701 285.5,22.5 Z"/></g>
<g><path style="opacity:0.008" fill="#fefffe" d="M 42.5,23.5 C 43.8333,24.1667 43.8333,24.1667 42.5,23.5 Z"/></g>
<g><path style="opacity:0.008" fill="#fefffe" d="M 146.5,23.5 C 146.833,23.5 147.167,23.5 147.5,23.5C 147.315,24.1701 146.981,24.1701 146.5,23.5 Z"/></g>
<g><path style="opacity:0.008" fill="#fefffe" d="M 284.5,23.5 C 284.833,23.5 285.167,23.5 285.5,23.5C 285.315,24.1701 284.981,24.1701 284.5,23.5 Z"/></g>
<g><path style="opacity:0.012" fill="#fefffe" d="M 41.5,24.5 C 41.8333,24.5 42.1667,24.5 42.5,24.5C 42.3147,25.1701 41.9813,25.1701 41.5,24.5 Z"/></g>
<g><path style="opacity:0.008" fill="#fefffe" d="M 50.5,27.5 C 49.4265,26.7494 49.2599,25.7494 50,24.5C 50.4828,25.448 50.6495,26.448 50.5,27.5 Z"/></g>
<g><path style="opacity:0.014" fill="#fefffe" d="M 76.5,28.5 C 73.9991,28.4891 73.8324,27.8224 76,26.5C 76.4643,27.0944 76.631,27.7611 76.5,28.5 Z"/></g>
<g><path style="opacity:0.01" fill="#fefffe" d="M 97.5,26.5 C 98.525,26.8966 98.6917,27.5632 98,28.5C 97.5357,27.9056 97.369,27.2389 97.5,26.5 Z"/></g>
<g><path style="opacity:0.004" fill="#fefffe" d="M 286.5,27.5 C 287.833,28.1667 287.833,28.1667 286.5,27.5 Z"/></g>
<g><path style="opacity:0.007" fill="#fefffe" d="M 49.5,31.5 C 48.4265,30.7494 48.2599,29.7494 49,28.5C 49.4828,29.448 49.6495,30.448 49.5,31.5 Z"/></g>
<g><path style="opacity:0.006" fill="#fefffe" d="M 150.5,30.5 C 150.167,30.5 149.833,30.5 149.5,30.5C 149.833,27.8333 150.167,27.8333 150.5,30.5 Z"/></g>
<g><path style="opacity:0.004" fill="#fefffe" d="M 255.5,28.5 C 256.833,29.1667 256.833,29.1667 255.5,28.5 Z"/></g>
<g><path style="opacity:0.01" fill="#fefffe" d="M 96.5,30.5 C 97.525,30.8966 97.6917,31.5632 97,32.5C 96.5357,31.9056 96.369,31.2389 96.5,30.5 Z"/></g>
<g><path style="opacity:0.008" fill="#fefffe" d="M 150.5,30.5 C 151.525,30.8966 151.692,31.5632 151,32.5C 150.536,31.9056 150.369,31.2389 150.5,30.5 Z"/></g>
<g><path style="opacity:0.008" fill="#fefffe" d="M 95.5,33.5 C 96.8333,34.8333 96.8333,36.1667 95.5,37.5C 95.5,36.1667 95.5,34.8333 95.5,33.5 Z"/></g>
<g><path style="opacity:0.012" fill="#fefffe" d="M 47.5,39.5 C 47.1667,39.5 46.8333,39.5 46.5,39.5C 46.7373,38.209 46.404,37.209 45.5,36.5C 45.3932,34.6214 45.8932,34.2881 47,35.5C 47.49,36.7932 47.6567,38.1266 47.5,39.5 Z"/></g>
<g><path style="opacity:0.012" fill="#fefffe" d="M 22.5,35.5 C 22.8333,35.5 23.1667,35.5 23.5,35.5C 23.1667,38.1667 22.8333,38.1667 22.5,35.5 Z"/></g>
<g><path style="opacity:0.01" fill="#fefffe" d="M 192.5,35.5 C 193.645,39.3112 193.812,43.3112 193,47.5C 192.501,43.5138 192.334,39.5138 192.5,35.5 Z"/></g>
<g><path style="opacity:0.008" fill="#fefffe" d="M 94.5,37.5 C 94.8333,37.5 95.1667,37.5 95.5,37.5C 95.1667,41.5 94.8333,41.5 94.5,37.5 Z"/></g>
<g><path style="opacity:0.01" fill="#fefffe" d="M 150.5,37.5 C 151.525,37.8966 151.692,38.5632 151,39.5C 150.536,38.9056 150.369,38.2389 150.5,37.5 Z"/></g>
<g><path style="opacity:0.007" fill="#fefffe" d="M 24.5,38.5 C 24.6567,39.8734 24.49,41.2068 24,42.5C 23.235,40.9343 23.4017,39.6009 24.5,38.5 Z"/></g>
<g><path style="opacity:0.008" fill="#fefffe" d="M 149.5,40.5 C 150.833,41.1667 150.833,41.1667 149.5,40.5 Z"/></g>
<g><path style="opacity:0.007" fill="#fefffe" d="M 93.5,41.5 C 94.5735,42.2506 94.7401,43.2506 94,44.5C 93.5172,43.552 93.3505,42.552 93.5,41.5 Z"/></g>
<g><path style="opacity:0.004" fill="#fefffe" d="M 148.5,41.5 C 148.833,41.5 149.167,41.5 149.5,41.5C 149.315,42.1701 148.981,42.1701 148.5,41.5 Z"/></g>
<g><path style="opacity:0.008" fill="#fefffe" d="M 270.5,41.5 C 271.833,42.1667 271.833,42.1667 270.5,41.5 Z"/></g>
<g><path style="opacity:0.004" fill="#fefffe" d="M 147.5,42.5 C 147.833,42.5 148.167,42.5 148.5,42.5C 148.315,43.1701 147.981,43.1701 147.5,42.5 Z"/></g>
<g><path style="opacity:0.008" fill="#fefffe" d="M 269.5,42.5 C 269.833,42.5 270.167,42.5 270.5,42.5C 270.672,43.4916 270.338,44.1583 269.5,44.5C 269.5,43.8333 269.5,43.1667 269.5,42.5 Z"/></g>
<g><path style="opacity:0.004" fill="#fefffe" d="M 299.5,42.5 C 299.5,42.8333 299.5,43.1667 299.5,43.5C 298.83,43.0187 298.83,42.6853 299.5,42.5 Z"/></g>
<g><path style="opacity:0.008" fill="#fefffe" d="M 54.5,43.5 C 53.7494,44.5735 52.7494,44.7401 51.5,44C 52.448,43.5172 53.448,43.3505 54.5,43.5 Z"/></g>
<g><path style="opacity:0.012" fill="#fefffe" d="M 268.5,44.5 C 268.833,44.5 269.167,44.5 269.5,44.5C 269.315,45.1701 268.981,45.1701 268.5,44.5 Z"/></g>
<g><path style="opacity:0.009" fill="#fefffe" d="M 62.5,45.5 C 61.3991,46.5983 60.0657,46.765 58.5,46C 59.7932,45.51 61.1266,45.3433 62.5,45.5 Z"/></g>
<g><path style="opacity:0.009" fill="#fefffe" d="M 92.5,45.5 C 93.5735,46.2506 93.7401,47.2506 93,48.5C 92.5172,47.552 92.3505,46.552 92.5,45.5 Z"/></g>
<g><path style="opacity:0.008" fill="#fefffe" d="M 144.5,45.5 C 144.833,45.5 145.167,45.5 145.5,45.5C 145.315,46.1701 144.981,46.1701 144.5,45.5 Z"/></g>
<g><path style="opacity:0.006" fill="#fefffe" d="M 242.5,45.5 C 243.525,45.8966 243.692,46.5632 243,47.5C 242.536,46.9056 242.369,46.2389 242.5,45.5 Z"/></g>
<g><path style="opacity:0.012" fill="#fefffe" d="M 267.5,45.5 C 267.833,45.5 268.167,45.5 268.5,45.5C 268.315,46.1701 267.981,46.1701 267.5,45.5 Z"/></g>
<g><path style="opacity:0.012" fill="#fefffe" d="M 276.5,45.5 C 275.833,46.1667 275.833,46.1667 276.5,45.5 Z"/></g>
<g><path style="opacity:0.012" fill="#fefffe" d="M 63.5,47.5 C 63.8966,46.475 64.5632,46.3083 65.5,47C 64.9056,47.4643 64.2389,47.631 63.5,47.5 Z"/></g>
<g><path style="opacity:0.004" fill="#fefffe" d="M 142.5,47.5 C 142.5,47.1667 142.5,46.8333 142.5,46.5C 143.167,46.5 143.833,46.5 144.5,46.5C 144.158,47.3382 143.492,47.6716 142.5,47.5 Z"/></g>
<g><path style="opacity:0.008" fill="#fefffe" d="M 69.5,47.5 C 68.7494,48.5735 67.7494,48.7401 66.5,48C 67.448,47.5172 68.448,47.3505 69.5,47.5 Z"/></g>
<g><path style="opacity:0.012" fill="#fefffe" d="M -0.5,49.5 C -0.5,49.1667 -0.5,48.8333 -0.5,48.5C 24.8333,48.8333 24.8333,49.1667 -0.5,49.5 Z"/></g>
<g><path style="opacity:0.012" fill="#fefffe" d="M 26.5,49.5 C 32.987,48.346 39.6536,48.1794 46.5,49C 39.8417,49.4996 33.175,49.6663 26.5,49.5 Z"/></g>
<g><path style="opacity:0.009" fill="#fefffe" d="M 70.5,49.5 C 71.2506,48.4265 72.2506,48.2599 73.5,49C 72.552,49.4828 71.552,49.6495 70.5,49.5 Z"/></g>
<g><path style="opacity:0.011" fill="#fefffe" d="M 139.5,48.5 C 128.007,49.6595 116.341,49.8261 104.5,49C 116.162,48.5001 127.829,48.3335 139.5,48.5 Z"/></g>
<g><path style="opacity:0.011" fill="#fefffe" d="M 154.5,49.5 C 166.66,48.3401 178.993,48.1735 191.5,49C 179.171,49.4999 166.838,49.6665 154.5,49.5 Z"/></g>
<g><path style="opacity:0.012" fill="#fefffe" d="M 196.5,49.5 C 210.661,48.3392 224.994,48.1725 239.5,49C 225.171,49.4999 210.837,49.6666 196.5,49.5 Z"/></g>
<g><path style="opacity:0.012" fill="#fefffe" d="M 265.5,48.5 C 258.679,49.6546 251.679,49.8213 244.5,49C 251.492,48.5004 258.492,48.3337 265.5,48.5 Z"/></g>
<g><path style="opacity:0.012" fill="#fefffe" d="M 299.5,48.5 C 299.5,48.8333 299.5,49.1667 299.5,49.5C 271.5,49.1667 271.5,48.8333 299.5,48.5 Z"/></g>
<g><path style="opacity:0.007" fill="#fefffe" d="M 77.5,49.5 C 76.7494,50.5735 75.7494,50.7401 74.5,50C 75.448,49.5172 76.448,49.3505 77.5,49.5 Z"/></g>
<g><path style="opacity:0.01" fill="#fefffe" d="M 91.5,49.5 C 92.3382,49.8417 92.6716,50.5084 92.5,51.5C 92.1667,51.5 91.8333,51.5 91.5,51.5C 91.5,50.8333 91.5,50.1667 91.5,49.5 Z"/></g>
<g><path style="opacity:0.008" fill="#fefffe" d="M 78.5,51.5 C 79.209,50.596 80.209,50.2627 81.5,50.5C 81.5,50.8333 81.5,51.1667 81.5,51.5C 80.5,51.5 79.5,51.5 78.5,51.5 Z"/></g>
</svg>
