<?xml version="1.0" encoding="UTF-8"?>
<!DOCTYPE svg PUBLIC "-//W3C//DTD SVG 1.1//EN" "http://www.w3.org/Graphics/SVG/1.1/DTD/svg11.dtd">
<svg xmlns="http://www.w3.org/2000/svg" version="1.1" width="200px" height="200px" style="shape-rendering:geometricPrecision; text-rendering:geometricPrecision; image-rendering:optimizeQuality; fill-rule:evenodd; clip-rule:evenodd" xmlns:xlink="http://www.w3.org/1999/xlink">
<g><path style="opacity:1" fill="#cfd7dd" d="M 176.5,126.5 C 173.229,128.026 169.729,128.692 166,128.5C 113.567,127.811 61.7335,127.811 10.5,128.5C 20.4834,86.7139 30.9834,45.0472 42,3.5C 42.6739,2.4216 43.6739,1.75493 45,1.5C 95.8805,14.6429 146.714,27.9763 197.5,41.5C 191.414,69.8916 184.414,98.225 176.5,126.5 Z M 87.5,81.5 C 98.1667,84.1667 108.833,86.8333 119.5,89.5C 117.2,100.866 114.2,112.032 110.5,123C 100.113,120.987 89.7798,118.487 79.5,115.5C 81.9628,104.113 84.6295,92.7797 87.5,81.5 Z"/></g>
<g><path style="opacity:1" fill="#c9d0d6" d="M 176.5,126.5 C 175.945,130.397 174.945,134.063 173.5,137.5C 172.711,137.783 172.044,138.283 171.5,139C 147.836,139.5 124.169,139.667 100.5,139.5C 100.5,138.5 100.5,137.5 100.5,136.5C 96.5,136.5 92.5,136.5 88.5,136.5C 88.5,137.5 88.5,138.5 88.5,139.5C 65.4976,139.333 42.4976,139.5 19.5,140C 17.3136,141.309 15.1469,141.476 13,140.5C 11.6667,142.167 10.3333,143.833 9,145.5C 8.14825,144.429 7.31491,143.429 6.5,142.5C 7.25969,137.567 8.59303,132.901 10.5,128.5C 61.7335,127.811 113.567,127.811 166,128.5C 169.729,128.692 173.229,128.026 176.5,126.5 Z"/></g>
<g><path style="opacity:1" fill="#c3cad0" d="M 173.5,137.5 C 172.421,143.228 171.088,148.895 169.5,154.5C 168.751,153.469 168.085,152.302 167.5,151C 165.527,150.505 163.527,150.338 161.5,150.5C 161.5,151.5 161.5,152.5 161.5,153.5C 157.839,152.303 154.172,151.303 150.5,150.5C 147.422,151.092 144.255,151.092 141,150.5C 138.24,150.82 135.573,151.486 133,152.5C 130.045,151.626 127.045,150.959 124,150.5C 116.616,152.068 109.449,151.402 102.5,148.5C 96.169,151.81 89.5023,152.477 82.5,150.5C 78.9689,151.005 75.4689,151.672 72,152.5C 65.9728,150.872 59.8061,150.205 53.5,150.5C 53.5,151.5 53.5,152.5 53.5,153.5C 49.5,153.5 45.5,153.5 41.5,153.5C 41.5,152.5 41.5,151.5 41.5,150.5C 37.8183,150.335 34.1516,150.501 30.5,151C 28.7098,154.583 28.0431,158.416 28.5,162.5C 26.8561,162.714 25.3561,162.38 24,161.5C 23.6667,162.167 23.3333,162.833 23,163.5C 21.8118,162.437 21.3118,161.103 21.5,159.5C 20.5,159.5 19.5,159.5 18.5,159.5C 18.5,157.5 18.5,155.5 18.5,153.5C 16.5,153.5 14.5,153.5 12.5,153.5C 12.719,154.675 12.3857,155.675 11.5,156.5C 10.1502,155.05 8.4835,154.383 6.5,154.5C 6.92271,156.781 6.25605,158.448 4.5,159.5C 3.41383,159.38 2.74716,158.713 2.5,157.5C 3.99838,152.504 5.33171,147.504 6.5,142.5C 7.31491,143.429 8.14825,144.429 9,145.5C 10.3333,143.833 11.6667,142.167 13,140.5C 15.1469,141.476 17.3136,141.309 19.5,140C 42.4976,139.5 65.4976,139.333 88.5,139.5C 88.5,138.5 88.5,137.5 88.5,136.5C 92.5,136.5 96.5,136.5 100.5,136.5C 100.5,137.5 100.5,138.5 100.5,139.5C 124.169,139.667 147.836,139.5 171.5,139C 172.044,138.283 172.711,137.783 173.5,137.5 Z"/></g>
<g><path style="opacity:1" fill="#bcc3ca" d="M 169.5,154.5 C 168.5,158.5 167.5,162.5 166.5,166.5C 163.904,165.735 161.237,165.401 158.5,165.5C 158.5,166.5 158.5,167.5 158.5,168.5C 134.817,168.47 111.15,167.804 87.5,166.5C 79.8348,166.641 72.5014,167.641 65.5,169.5C 61.4711,169.68 57.6378,169.014 54,167.5C 50.9143,167.996 48.0809,168.996 45.5,170.5C 31.5738,167.407 17.9071,163.74 4.5,159.5C 6.25605,158.448 6.92271,156.781 6.5,154.5C 8.4835,154.383 10.1502,155.05 11.5,156.5C 12.3857,155.675 12.719,154.675 12.5,153.5C 14.5,153.5 16.5,153.5 18.5,153.5C 18.5,155.5 18.5,157.5 18.5,159.5C 19.5,159.5 20.5,159.5 21.5,159.5C 21.3118,161.103 21.8118,162.437 23,163.5C 23.3333,162.833 23.6667,162.167 24,161.5C 25.3561,162.38 26.8561,162.714 28.5,162.5C 28.0431,158.416 28.7098,154.583 30.5,151C 34.1516,150.501 37.8183,150.335 41.5,150.5C 41.5,151.5 41.5,152.5 41.5,153.5C 45.5,153.5 49.5,153.5 53.5,153.5C 53.5,152.5 53.5,151.5 53.5,150.5C 59.8061,150.205 65.9728,150.872 72,152.5C 75.4689,151.672 78.9689,151.005 82.5,150.5C 89.5023,152.477 96.169,151.81 102.5,148.5C 109.449,151.402 116.616,152.068 124,150.5C 127.045,150.959 130.045,151.626 133,152.5C 135.573,151.486 138.24,150.82 141,150.5C 144.255,151.092 147.422,151.092 150.5,150.5C 154.172,151.303 157.839,152.303 161.5,153.5C 161.5,152.5 161.5,151.5 161.5,150.5C 163.527,150.338 165.527,150.505 167.5,151C 168.085,152.302 168.751,153.469 169.5,154.5 Z"/></g>
<g><path style="opacity:0.998" fill="#b5bcc3" d="M 166.5,166.5 C 165.629,170.182 164.629,173.848 163.5,177.5C 162.069,177.881 161.236,178.881 161,180.5C 145.241,179.343 129.408,179.176 113.5,180C 112.027,180.71 111.36,181.876 111.5,183.5C 106.814,183.162 102.147,182.995 97.5,183C 98.7383,183.69 98.7383,184.19 97.5,184.5C 79.8892,180.433 62.5559,175.766 45.5,170.5C 48.0809,168.996 50.9143,167.996 54,167.5C 57.6378,169.014 61.4711,169.68 65.5,169.5C 72.5014,167.641 79.8348,166.641 87.5,166.5C 111.15,167.804 134.817,168.47 158.5,168.5C 158.5,167.5 158.5,166.5 158.5,165.5C 161.237,165.401 163.904,165.735 166.5,166.5 Z"/></g>
<g><path style="opacity:0.999" fill="#aeb4bb" d="M 163.5,177.5 C 161.808,184.937 159.808,192.271 157.5,199.5C 155.5,199.5 153.5,199.5 151.5,199.5C 133.505,194.501 115.505,189.501 97.5,184.5C 98.7383,184.19 98.7383,183.69 97.5,183C 102.147,182.995 106.814,183.162 111.5,183.5C 111.36,181.876 112.027,180.71 113.5,180C 129.408,179.176 145.241,179.343 161,180.5C 161.236,178.881 162.069,177.881 163.5,177.5 Z"/></g>
</svg>
