<?xml version="1.0" encoding="UTF-8"?>
<!DOCTYPE svg PUBLIC "-//W3C//DTD SVG 1.1//EN" "http://www.w3.org/Graphics/SVG/1.1/DTD/svg11.dtd">
<svg xmlns="http://www.w3.org/2000/svg" version="1.1" width="22px" height="20px" style="shape-rendering:geometricPrecision; text-rendering:geometricPrecision; image-rendering:optimizeQuality; fill-rule:evenodd; clip-rule:evenodd" xmlns:xlink="http://www.w3.org/1999/xlink">
<g><path style="opacity:0.739" fill="#fefffe" d="M 7.5,-0.5 C 9.5,-0.5 11.5,-0.5 13.5,-0.5C 13.3505,0.551975 13.5172,1.55198 14,2.5C 15.6667,1.16667 17.3333,1.16667 19,2.5C 19.4922,3.54896 19.3256,4.54896 18.5,5.5C 21.1667,8.16667 21.1667,10.8333 18.5,13.5C 19.3256,14.451 19.4922,15.451 19,16.5C 17.3333,17.8333 15.6667,17.8333 14,16.5C 13.5172,17.448 13.3505,18.448 13.5,19.5C 11.5,19.5 9.5,19.5 7.5,19.5C 7.64945,18.448 7.48278,17.448 7,16.5C 5.33333,17.8333 3.66667,17.8333 2,16.5C 1.50776,15.451 1.67443,14.451 2.5,13.5C -0.166667,10.8333 -0.166667,8.16667 2.5,5.5C 1.67443,4.54896 1.50776,3.54896 2,2.5C 3.66667,1.16667 5.33333,1.16667 7,2.5C 7.48278,1.55198 7.64945,0.551975 7.5,-0.5 Z M 9.5,6.5 C 14.1972,7.87429 14.5305,9.87429 10.5,12.5C 7.02503,10.9158 6.6917,8.91581 9.5,6.5 Z"/></g>
</svg>
