<?xml version="1.0" encoding="UTF-8"?>
<!DOCTYPE svg PUBLIC "-//W3C//DTD SVG 1.1//EN" "http://www.w3.org/Graphics/SVG/1.1/DTD/svg11.dtd">
<svg xmlns="http://www.w3.org/2000/svg" version="1.1" width="1000px" height="1000px" style="shape-rendering:geometricPrecision; text-rendering:geometricPrecision; image-rendering:optimizeQuality; fill-rule:evenodd; clip-rule:evenodd" xmlns:xlink="http://www.w3.org/1999/xlink">
<g><path style="opacity:0.983" fill="#fefffe" d="M 397.5,321.5 C 553.501,321.167 709.501,321.5 865.5,322.5C 856.743,344.013 846.91,365.013 836,385.5C 833.5,388.667 831,391.833 828.5,395C 641.5,395.5 454.5,395.667 267.5,395.5C 267.491,393.692 267.991,392.025 269,390.5C 285.081,366.427 306.581,348.927 333.5,338C 354.23,329.652 375.563,324.152 397.5,321.5 Z"/></g>
<g><path style="opacity:0.992" fill="#fefffe" d="M 247.5,459.5 C 397.5,459.333 547.5,459.5 697.5,460C 729.946,463.8 758.113,476.633 782,498.5C 788.152,505.138 792.486,512.805 795,521.5C 795.667,526.833 795.667,532.167 795,537.5C 790.801,555.296 786.134,572.963 781,590.5C 773.661,607.52 762.827,622.02 748.5,634C 717.752,657.145 683.085,670.478 644.5,674C 473.832,674.833 303.166,674.667 132.5,673.5C 141.787,652.259 151.62,631.259 162,610.5C 164.167,607.667 166.333,604.833 168.5,602C 307.833,601.667 447.167,601.333 586.5,601C 612.291,598.195 631.791,585.695 645,563.5C 646.491,554.995 645.157,546.995 641,539.5C 639.062,536.894 636.562,535.061 633.5,534C 543.167,533.667 452.833,533.333 362.5,533C 325.362,532.747 292.695,520.747 264.5,497C 253.259,487.019 247.592,474.519 247.5,459.5 Z"/></g>
</svg>
