<?xml version="1.0" encoding="UTF-8"?>
<!DOCTYPE svg PUBLIC "-//W3C//DTD SVG 1.1//EN" "http://www.w3.org/Graphics/SVG/1.1/DTD/svg11.dtd">
<svg xmlns="http://www.w3.org/2000/svg" version="1.1" width="1000px" height="1000px" style="shape-rendering:geometricPrecision; text-rendering:geometricPrecision; image-rendering:optimizeQuality; fill-rule:evenodd; clip-rule:evenodd" xmlns:xlink="http://www.w3.org/1999/xlink">
<g><path style="opacity:0.987" fill="#fefffe" d="M 999.5,257.5 C 999.5,258.5 999.5,259.5 999.5,260.5C 987.589,289.991 973.756,318.658 958,346.5C 955.167,350 952.333,353.5 949.5,357C 694.166,357.833 438.833,357.667 183.5,356.5C 195.452,334.712 211.785,316.879 232.5,303C 269.861,278.501 310.861,263.834 355.5,259C 570.149,257.511 784.815,257.011 999.5,257.5 Z"/></g>
<g><path style="opacity:0.994" fill="#fefffe" d="M -0.5,738.5 C -0.5,738.167 -0.5,737.833 -0.5,737.5C 12.4067,709.015 25.9067,680.682 40,652.5C 43.0453,648.244 46.212,644.077 49.5,640C 239.5,639.667 429.5,639.333 619.5,639C 651.738,635.635 677.238,620.801 696,594.5C 702.335,580.853 701.669,567.52 694,554.5C 691.079,550.908 687.579,548.075 683.5,546C 560.167,545.667 436.833,545.333 313.5,545C 265.212,544.53 222.212,529.53 184.5,500C 176.548,493.054 169.714,485.221 164,476.5C 158.518,466.888 156.018,456.555 156.5,445.5C 360.5,445.333 564.5,445.5 768.5,446C 804.135,450.161 836.802,462.161 866.5,482C 881.962,492.79 893.795,506.624 902,523.5C 904.379,532.353 905.045,541.353 904,550.5C 898.667,571.833 893.333,593.167 888,614.5C 880.336,638.005 867.502,658.171 849.5,675C 807.806,710.584 759.473,731.251 704.5,737C 469.516,738.489 234.516,738.989 -0.5,738.5 Z"/></g>
</svg>
