<?xml version="1.0" encoding="UTF-8"?>
<!DOCTYPE svg PUBLIC "-//W3C//DTD SVG 1.1//EN" "http://www.w3.org/Graphics/SVG/1.1/DTD/svg11.dtd">
<svg xmlns="http://www.w3.org/2000/svg" version="1.1" width="320px" height="60px" style="shape-rendering:geometricPrecision; text-rendering:geometricPrecision; image-rendering:optimizeQuality; fill-rule:evenodd; clip-rule:evenodd" xmlns:xlink="http://www.w3.org/1999/xlink">
<g><path style="opacity:0.878" fill="#fefffe" d="M 75.5,13.5 C 90.5,13.5 105.5,13.5 120.5,13.5C 120.5,16.5 120.5,19.5 120.5,22.5C 115.5,22.5 110.5,22.5 105.5,22.5C 105.5,30.1667 105.5,37.8333 105.5,45.5C 100.5,45.5 95.5,45.5 90.5,45.5C 90.5,37.8333 90.5,30.1667 90.5,22.5C 85.5,22.5 80.5,22.5 75.5,22.5C 75.5,19.5 75.5,16.5 75.5,13.5 Z"/></g>
<g><path style="opacity:0.902" fill="#fefffe" d="M 124.5,14.5 C 129.68,13.1853 135.014,13.1853 140.5,14.5C 142.934,18.3817 145.601,22.0484 148.5,25.5C 151.043,21.5794 153.71,17.7461 156.5,14C 161.533,13.1711 166.533,13.3377 171.5,14.5C 168.333,19.5 165.167,24.5 162,29.5C 160.587,31.4136 158.753,32.7469 156.5,33.5C 155.509,37.4454 155.176,41.4454 155.5,45.5C 150.5,45.5 145.5,45.5 140.5,45.5C 140.824,41.4454 140.491,37.4454 139.5,33.5C 137.742,32.8721 136.242,31.8721 135,30.5C 131.637,24.9909 128.137,19.6576 124.5,14.5 Z"/></g>
<g><path style="opacity:0.883" fill="#fefffe" d="M 176.5,13.5 C 181.5,13.5 186.5,13.5 191.5,13.5C 191.334,20.5079 191.5,27.5079 192,34.5C 192.5,35 193,35.5 193.5,36C 202.827,36.4998 212.161,36.6665 221.5,36.5C 221.5,39.5 221.5,42.5 221.5,45.5C 210.495,45.6665 199.495,45.4998 188.5,45C 183.237,44.0668 179.404,41.2335 177,36.5C 176.5,28.8406 176.334,21.1739 176.5,13.5 Z"/></g>
<g><path style="opacity:0.889" fill="#fefffe" d="M 223.5,13.5 C 238.5,13.5 253.5,13.5 268.5,13.5C 268.5,16.5 268.5,19.5 268.5,22.5C 258.5,22.5 248.5,22.5 238.5,22.5C 238.5,23.5 238.5,24.5 238.5,25.5C 244.833,25.5 251.167,25.5 257.5,25.5C 257.5,28.1667 257.5,30.8333 257.5,33.5C 251.158,33.3338 244.825,33.5005 238.5,34C 239.167,34.6667 239.833,35.3333 240.5,36C 249.827,36.4998 259.161,36.6665 268.5,36.5C 268.5,39.5 268.5,42.5 268.5,45.5C 257.495,45.6665 246.495,45.4998 235.5,45C 230.237,44.0668 226.404,41.2335 224,36.5C 223.5,28.8406 223.334,21.1739 223.5,13.5 Z"/></g>
<g><path style="opacity:0.905" fill="#fefffe" d="M 272.5,13.5 C 277.511,13.3341 282.511,13.5007 287.5,14C 289.81,18.1326 292.476,21.9659 295.5,25.5C 298.851,21.9776 301.851,18.1443 304.5,14C 309.155,13.5008 313.821,13.3342 318.5,13.5C 316.05,19.0592 313.05,24.3925 309.5,29.5C 312.5,34.1667 315.5,38.8333 318.5,43.5C 313.533,44.6623 308.533,44.8289 303.5,44C 301.358,40.2055 298.858,36.7055 296,33.5C 292.834,36.6283 290,40.1283 287.5,44C 282.5,44.6667 277.5,44.6667 272.5,44C 275.833,39 279.167,34 282.5,29C 278.522,24.2018 275.189,19.0351 272.5,13.5 Z"/></g>
<g><path style="opacity:0.969" fill="#fefffe" d="M 19.5,14.5 C 36.8365,14.3334 54.1699,14.5001 71.5,15C 70.624,16.586 69.624,18.086 68.5,19.5C 49.2688,20.1725 30.1021,20.8392 11,21.5C 10.4926,20.0039 10.9926,18.8373 12.5,18C 14.9252,16.7874 17.2585,15.6207 19.5,14.5 Z"/></g>
<g><path style="opacity:0.965" fill="#fefffe" d="M 8.5,26.5 C 24.8367,26.3334 41.1701,26.5001 57.5,27C 64.4506,28.7316 65.9506,32.5649 62,38.5C 59.8995,41.4668 57.0662,43.3002 53.5,44C 36.1667,44.6667 18.8333,44.6667 1.5,44C 2.5,42.3333 3.5,40.6667 4.5,39C 17.8333,38.6667 31.1667,38.3333 44.5,38C 47.4122,37.1548 48.4122,35.4882 47.5,33C 36.5,32.6667 25.5,32.3333 14.5,32C 11.3589,31.2854 9.35885,29.4521 8.5,26.5 Z"/></g>
</svg>
