<?xml version="1.0" encoding="UTF-8"?>
<!DOCTYPE svg PUBLIC "-//W3C//DTD SVG 1.1//EN" "http://www.w3.org/Graphics/SVG/1.1/DTD/svg11.dtd">
<svg xmlns="http://www.w3.org/2000/svg" version="1.1" width="300px" height="52px" style="shape-rendering:geometricPrecision; text-rendering:geometricPrecision; image-rendering:optimizeQuality; fill-rule:evenodd; clip-rule:evenodd" xmlns:xlink="http://www.w3.org/1999/xlink">
<g><path style="opacity:0.971" fill="#fefffe" d="M 16.5,4.5 C 32.5139,4.16724 48.5139,4.50058 64.5,5.5C 63.3052,7.75127 62.3052,10.0846 61.5,12.5C 43.269,13.1729 25.1024,13.8395 7,14.5C 8.2236,9.44012 11.3903,6.10679 16.5,4.5 Z"/></g>
<g><path style="opacity:0.947" fill="#fefffe" d="M 69.5,4.5 C 83.5,4.5 97.5,4.5 111.5,4.5C 111.5,8.16667 111.5,11.8333 111.5,15.5C 106.833,15.5 102.167,15.5 97.5,15.5C 97.5,26.1667 97.5,36.8333 97.5,47.5C 92.8333,47.5 88.1667,47.5 83.5,47.5C 83.5,36.8333 83.5,26.1667 83.5,15.5C 78.8333,15.5 74.1667,15.5 69.5,15.5C 69.5,11.8333 69.5,8.16667 69.5,4.5 Z"/></g>
<g><path style="opacity:0.909" fill="#fefffe" d="M 116.5,4.5 C 121.544,4.17252 126.544,4.50585 131.5,5.5C 133.911,10.579 136.411,15.579 139,20.5C 141.628,15.4099 144.128,10.2432 146.5,5C 151.5,4.33333 156.5,4.33333 161.5,5C 157.74,12.7734 154.074,20.6067 150.5,28.5C 149.24,29.3816 148.074,30.3816 147,31.5C 146.501,36.8229 146.334,42.1563 146.5,47.5C 141.5,47.5 136.5,47.5 131.5,47.5C 131.666,42.1563 131.499,36.8229 131,31.5C 129.488,30.7433 128.154,29.7433 127,28.5C 123.213,20.5956 119.713,12.5956 116.5,4.5 Z"/></g>
<g><path style="opacity:0.919" fill="#fefffe" d="M 165.5,4.5 C 170.167,4.5 174.833,4.5 179.5,4.5C 179.051,14.6051 179.551,24.6051 181,34.5C 189.749,35.4839 198.582,35.8172 207.5,35.5C 207.5,39.5 207.5,43.5 207.5,47.5C 197.161,47.6665 186.828,47.4998 176.5,47C 170.59,45.4213 167.09,41.588 166,35.5C 165.5,25.172 165.334,14.8387 165.5,4.5 Z"/></g>
<g><path style="opacity:0.935" fill="#fefffe" d="M 209.5,4.5 C 223.5,4.5 237.5,4.5 251.5,4.5C 251.5,8.16667 251.5,11.8333 251.5,15.5C 242.167,15.5 232.833,15.5 223.5,15.5C 223.5,17.1667 223.5,18.8333 223.5,20.5C 229.5,20.5 235.5,20.5 241.5,20.5C 241.5,24.1667 241.5,27.8333 241.5,31.5C 235.491,31.3338 229.491,31.5005 223.5,32C 224.167,33 224.833,34 225.5,35C 234.16,35.4998 242.827,35.6664 251.5,35.5C 251.5,39.5 251.5,43.5 251.5,47.5C 241.161,47.6665 230.828,47.4998 220.5,47C 214.59,45.4213 211.09,41.588 210,35.5C 209.5,25.172 209.334,14.8387 209.5,4.5 Z"/></g>
<g><path style="opacity:0.92" fill="#fefffe" d="M 299.5,4.5 C 299.5,5.83333 299.5,7.16667 299.5,8.5C 296.472,14.0639 293.805,19.8972 291.5,26C 294.078,31.6525 296.744,37.1525 299.5,42.5C 299.5,43.8333 299.5,45.1667 299.5,46.5C 295.154,46.6657 290.821,46.499 286.5,46C 284.103,40.9361 281.437,36.1028 278.5,31.5C 275.737,36.1862 273.07,41.0195 270.5,46C 265.798,46.8283 261.131,46.6616 256.5,45.5C 259.403,38.9577 262.403,32.4577 265.5,26C 262.637,19.108 259.637,12.2747 256.5,5.5C 261.131,4.33836 265.798,4.17169 270.5,5C 272.769,10.3706 275.435,15.5372 278.5,20.5C 281.565,15.5372 284.231,10.3706 286.5,5C 290.821,4.50098 295.154,4.33432 299.5,4.5 Z"/></g>
<g><path style="opacity:0.97" fill="#fefffe" d="M -0.5,46.5 C -0.5,44.8333 -0.5,43.1667 -0.5,41.5C 0.248534,40.469 0.915201,39.3024 1.5,38C 13.8333,37.6667 26.1667,37.3333 38.5,37C 42.2233,35.7413 43.2233,33.4079 41.5,30C 31.5,29.6667 21.5,29.3333 11.5,29C 7.67659,27.359 5.67659,24.5257 5.5,20.5C 20.5037,20.3334 35.5037,20.5001 50.5,21C 56.9952,22.8456 59.1619,27.0122 57,33.5C 55.9682,39.7253 52.4682,43.892 46.5,46C 30.8369,46.4999 15.1702,46.6666 -0.5,46.5 Z"/></g>
</svg>
