<?xml version="1.0" encoding="UTF-8"?>
<!DOCTYPE svg PUBLIC "-//W3C//DTD SVG 1.1//EN" "http://www.w3.org/Graphics/SVG/1.1/DTD/svg11.dtd">
<svg xmlns="http://www.w3.org/2000/svg" version="1.1" width="320px" height="60px" style="shape-rendering:geometricPrecision; text-rendering:geometricPrecision; image-rendering:optimizeQuality; fill-rule:evenodd; clip-rule:evenodd" xmlns:xlink="http://www.w3.org/1999/xlink">
<g><path style="opacity:0.973" fill="#fefffe" d="M 20.5,7.5 C 37.5033,7.3334 54.5033,7.50006 71.5,8C 70.4381,10.7905 69.1048,13.4572 67.5,16C 48.5933,16.1734 29.76,16.6734 11,17.5C 12.2236,12.4401 15.3903,9.10679 20.5,7.5 Z"/></g>
<g><path style="opacity:0.94" fill="#fefffe" d="M 75.5,7.5 C 90.5,7.5 105.5,7.5 120.5,7.5C 120.5,11.1667 120.5,14.8333 120.5,18.5C 115.5,18.5 110.5,18.5 105.5,18.5C 105.5,29.8333 105.5,41.1667 105.5,52.5C 100.5,52.5 95.5,52.5 90.5,52.5C 90.5,41.1667 90.5,29.8333 90.5,18.5C 85.5,18.5 80.5,18.5 75.5,18.5C 75.5,14.8333 75.5,11.1667 75.5,7.5 Z"/></g>
<g><path style="opacity:0.93" fill="#fefffe" d="M 124.5,8.5 C 129.68,7.18526 135.014,7.18526 140.5,8.5C 142.423,13.9709 145.09,18.9709 148.5,23.5C 151.384,18.399 153.718,13.0656 155.5,7.5C 160.875,7.17182 166.208,7.50515 171.5,8.5C 168,16.1667 164.5,23.8333 161,31.5C 159.649,33.019 158.149,34.3523 156.5,35.5C 155.505,41.1278 155.171,46.7945 155.5,52.5C 150.5,52.5 145.5,52.5 140.5,52.5C 140.666,46.8236 140.499,41.1569 140,35.5C 138.488,34.7433 137.154,33.7433 136,32.5C 132.242,24.354 128.409,16.354 124.5,8.5 Z"/></g>
<g><path style="opacity:0.917" fill="#fefffe" d="M 176.5,7.5 C 181.5,7.5 186.5,7.5 191.5,7.5C 191.334,17.5056 191.5,27.5056 192,37.5C 192.833,38.3333 193.667,39.1667 194.5,40C 203.494,40.4998 212.494,40.6664 221.5,40.5C 221.5,44.5 221.5,48.5 221.5,52.5C 210.495,52.6665 199.495,52.4998 188.5,52C 182.26,50.0919 178.427,45.9253 177,39.5C 176.5,28.8385 176.333,18.1719 176.5,7.5 Z"/></g>
<g><path style="opacity:0.935" fill="#fefffe" d="M 223.5,7.5 C 238.5,7.5 253.5,7.5 268.5,7.5C 268.5,11.1667 268.5,14.8333 268.5,18.5C 258.5,18.5 248.5,18.5 238.5,18.5C 238.5,20.1667 238.5,21.8333 238.5,23.5C 244.833,23.5 251.167,23.5 257.5,23.5C 257.5,27.5 257.5,31.5 257.5,35.5C 251.132,35.1703 244.798,35.5037 238.5,36.5C 239.313,37.8139 240.313,38.9805 241.5,40C 250.494,40.4998 259.494,40.6664 268.5,40.5C 268.5,44.5 268.5,48.5 268.5,52.5C 257.495,52.6665 246.495,52.4998 235.5,52C 229.26,50.0919 225.427,45.9253 224,39.5C 223.5,28.8385 223.333,18.1719 223.5,7.5 Z"/></g>
<g><path style="opacity:0.928" fill="#fefffe" d="M 272.5,7.5 C 277.511,7.33407 282.511,7.50074 287.5,8C 290.038,13.5766 292.705,19.0766 295.5,24.5C 298.661,19.511 301.328,14.1777 303.5,8.5C 308.456,7.50585 313.456,7.17252 318.5,7.5C 315.899,14.9639 312.899,22.2972 309.5,29.5C 312.304,36.5764 315.304,43.5764 318.5,50.5C 313.5,51.8333 308.5,51.8333 303.5,50.5C 301.204,45.5808 299.204,40.5808 297.5,35.5C 296.325,35.281 295.325,35.6143 294.5,36.5C 292.067,41.3076 289.734,46.141 287.5,51C 282.5,51.6667 277.5,51.6667 272.5,51C 275.962,43.9088 279.295,36.7421 282.5,29.5C 278.607,22.383 275.273,15.0497 272.5,7.5 Z"/></g>
<g><path style="opacity:0.969" fill="#fefffe" d="M 8.5,24.5 C 24.5035,24.3334 40.5035,24.5001 56.5,25C 60.487,26.3203 63.1537,28.987 64.5,33C 64.2297,41.5537 60.2297,47.5537 52.5,51C 35.4902,51.8329 18.4902,51.6663 1.5,50.5C 2.30524,48.0846 3.30524,45.7513 4.5,43.5C 17.4872,42.6673 30.4872,42.1673 43.5,42C 47.6712,40.5498 49.0046,37.8831 47.5,34C 36.8333,33.6667 26.1667,33.3333 15.5,33C 11.1231,31.7945 8.78981,28.9612 8.5,24.5 Z"/></g>
</svg>
