<?xml version="1.0" encoding="UTF-8"?><svg id="Layer_1" xmlns="http://www.w3.org/2000/svg" viewBox="0 0 15 12.89"><defs><style>.cls-1{fill:#fff;}</style></defs><path class="cls-1" d="M.61,11.09c0-.11,0-.23,0-.34.05-.2.08-.4.16-.59.96-2.28,2.52-4,4.71-5.15.42-.22.86-.4,1.29-.61.13-.06.25-.14.36-.22.03-.02.05-.11.04-.15-.02-.04-.08-.07-.13-.09-.03-.01-.07,0-.1,0-1.47,0-2.95.02-4.42-.01-.73-.02-1.31-.36-1.66-1.02-.12-.24-.18-.51-.26-.77,0-.11,0-.23,0-.34,0-.03.02-.06.02-.08.06-.41.23-.79.52-1.09C1.56.2,2.07,0,2.65,0c2.84,0,5.68,0,8.51,0,.13,0,.27,0,.4,0,.78.06,1.39.4,1.72,1.13.1.21.14.44.21.66v.34c-.05.18-.08.38-.15.55-.83,2.03-2.18,3.64-4.04,4.8-.56.35-1.15.62-1.75.88-.19.08-.37.18-.54.29-.05.03-.09.12-.09.18,0,.08.09.11.17.1.02,0,.04,0,.07,0,1.43,0,2.87,0,4.3,0,.92,0,1.65.53,1.93,1.4.04.13.06.27.1.4v.34s-.02.07-.03.1c-.09.48-.29.89-.66,1.21-.41.35-.9.49-1.43.49-2.8,0-5.59,0-8.39,0-.16,0-.31,0-.47,0-.79-.07-1.4-.43-1.72-1.17-.09-.2-.12-.41-.18-.62ZM12.57,1.99s-.02,0-.04-.01c0-.42-.24-.79-.62-.94-.38-.16-.81-.07-1.1.24-.11.12-.2.27-.27.42-.78,1.76-2.04,3.03-3.81,3.78-1.16.49-2.19,1.16-3.08,2.06-.86.87-1.54,1.86-2,2.99-.25.61.13,1.29.77,1.39.49.08.92-.18,1.14-.68.78-1.81,2.08-3.08,3.89-3.85,2.26-.96,3.9-2.57,4.93-4.8.09-.19.13-.39.2-.58ZM6.04.97c-1.15,0-2.3,0-3.45,0-.65,0-1.11.57-.99,1.21.09.46.52.8,1.01.8,1.95,0,3.89,0,5.84,0,.12,0,.2-.04.28-.13.41-.49.73-1.02.98-1.61.08-.19.03-.28-.18-.28-1.16,0-2.32,0-3.48,0ZM8.06,11.92c1.15,0,2.3,0,3.44,0,.54,0,1.04-.5,1.04-1.02,0-.51-.49-1-1.03-1-1.94.02-3.89,0-5.83,0-.14,0-.22.05-.31.15-.4.48-.72,1.01-.96,1.59-.08.2-.03.28.18.28,1.16,0,2.31,0,3.47,0Z"/></svg>